<?xml version="1.0" standalone="no"?>
<!DOCTYPE svg PUBLIC "-//W3C//DTD SVG 1.1//EN" "http://www.w3.org/Graphics/SVG/1.1/DTD/svg11.dtd" >
<svg xmlns="http://www.w3.org/2000/svg" xmlns:xlink="http://www.w3.org/1999/xlink" version="1.1">
<metadata>
Created by FontForge 20170731 at Fri Jan  1 02:30:17 1904
 By Aleksey,,,
Copyright 1993-1996 Brand Design Co., Inc./House Industries. Font by Ken Barber.
</metadata>
<defs>
<font id="FinkHeavy" horiz-adv-x="409" >
  <font-face 
    font-family="FinkHeavy"
    font-weight="400"
    font-stretch="normal"
    units-per-em="1000"
    panose-1="0 0 0 0 0 0 0 0 0 0"
    ascent="800"
    descent="-200"
    x-height="415"
    cap-height="691"
    bbox="-74.1 -350 1447.05 882"
    underline-thickness="20"
    underline-position="-163"
    unicode-range="U+0020-F0BD"
  />
<missing-glyph horiz-adv-x="479" 
d="M40 0v531h399v-531h-399zM80 40h319v451h-319v-451z" />
    <glyph glyph-name=".notdef" horiz-adv-x="479" 
d="M40 0v531h399v-531h-399zM80 40h319v451h-319v-451z" />
    <glyph glyph-name=".null" horiz-adv-x="0" 
 />
    <glyph glyph-name="nonmarkingreturn" horiz-adv-x="333" 
 />
    <glyph glyph-name="space" unicode=" " horiz-adv-x="250" 
 />
    <glyph glyph-name="exclam" unicode="!" horiz-adv-x="184" 
d="M152 734l-9 -595l-93 1l-15 590zM164 0l-108 2l2 92l104 1z" />
    <glyph glyph-name="quotedbl" unicode="&#x22;" horiz-adv-x="270" 
d="M250 661l-10 -192l-74 1l-13 186zM117 669l-8 -208l-74 2l-15 202z" />
    <glyph glyph-name="numbersign" unicode="#" horiz-adv-x="513" 
d="M493 431l-8 -94l-88 -1l-12 -81l77 -1l-10 -85l-81 -2l-13 -83l-100 2l11 80l-69 -1l-12 -72l-90 5l8 65l-86 -1l5 99l93 -2l9 74l-74 -1l2 101h84l11 90l109 5l-16 -96h63l16 117l109 5l-19 -123h81zM293 335l-66 -1l-12 -76l67 -1z" />
    <glyph glyph-name="dollar" unicode="$" horiz-adv-x="310" 
d="M290 411l-86 -10q-1 17 -11 32.5t-31 15.5q-17 0 -31.5 -9.5t-13.5 -31.5q1 -21 28 -38t58 -38t57 -49t26 -71q0 -36 -23 -67t-68 -38l-2 -71l-77 3l-1 70q-25 5 -46.5 19t-34 35t-14 46t12.5 50l81 -27q-8 -19 3 -31.5t27 -16t31 2.5t15 25q0 21 -25 37.5t-55.5 36
t-57 46t-29.5 67.5q-2 35 15.5 73.5t68.5 53.5l-1 94l98 -1l-2 -91q25 -5 42 -20.5t27.5 -33.5t14.5 -35.5t4 -27.5z" />
    <glyph glyph-name="percent" unicode="%" horiz-adv-x="768" 
d="M748 164q-2 -74 -40.5 -125.5t-105.5 -54.5q-32 -2 -60.5 8.5t-50.5 30.5t-36 49.5t-17 66.5q-4 42 7 78t32.5 62t51 41.5t64.5 16.5q32 1 60.5 -13t49.5 -38t33 -56t12 -66zM591 657l-311 -709l-91 33l290 727zM335 483q-1 -72 -41 -121.5t-107 -53.5q-65 -3 -112 38
t-54 113q-4 41 7 75.5t33 60t52 40t65 15.5q33 2 61.5 -11.5t50 -37t33.5 -54.5t12 -64zM668 158q0 17 -6 34t-16 30t-23 20.5t-27 7.5q-28 -1 -50 -32.5t-19 -71.5q2 -38 23.5 -58t49.5 -20t48 28t20 62zM249 477q0 31 -21.5 57.5t-50.5 25.5q-28 -1 -49.5 -29.5
t-19.5 -64.5q2 -34 23 -52t50 -18t48.5 25t19.5 56z" />
    <glyph glyph-name="ampersand" unicode="&#x26;" horiz-adv-x="513" 
d="M493 -16l-90 1l1 53q-18 -24 -64 -38t-100 -11t-105.5 27t-81.5 75q-32 55 -33 109t20.5 98.5t61 75.5t88.5 40q-26 13 -43.5 37t-25 53t-3.5 59.5t20 54.5q24 35 60 52t75 20.5t76.5 -4.5t63.5 -21l-29 -95q-18 9 -41 14.5t-44 5t-38 -7.5t-25 -22q-10 -20 -6 -41
t20.5 -38t43.5 -29t63 -13l-11 -92q-39 0 -75.5 -7.5t-64 -25t-43 -46t-13.5 -70.5t18 -66t36.5 -36t42.5 -15t36 -2q18 1 38.5 7.5t38 22.5t29.5 42t12 65l-63 2l-6 -78l-73 -2l-5 154l233 7z" />
    <glyph glyph-name="quotesingle" unicode="'" horiz-adv-x="137" 
d="M117 677l-8 -208l-74 1l-15 202z" />
    <glyph glyph-name="parenleft" unicode="(" horiz-adv-x="281" 
d="M261 -66l-37 -87q-56 22 -95 72t-63 116.5t-35 144.5t-11 156t11 156t35 144.5t63 116.5t95 72l37 -87q-25 -13 -49 -46t-42 -84.5t-29 -119.5t-10 -152q1 -168 38.5 -272t91.5 -130z" />
    <glyph glyph-name="parenright" unicode=")" horiz-adv-x="281" 
d="M261 336q0 -78 -11 -156t-35 -144.5t-63 -116.5t-95 -72l-37 87q54 26 91 130t39 272q1 84 -10 152t-29 119.5t-41.5 84.5t-49.5 46l37 87q56 -22 95 -72t63 -116.5t35 -144.5t11 -156z" />
    <glyph glyph-name="asterisk" unicode="*" horiz-adv-x="339" 
d="M319 589l-73 -55l55 -49l-43 -56l-79 43l-53 -67l-64 34l31 74l-73 37l31 67l68 -19l-1 88l74 5l18 -82l74 34z" />
    <glyph glyph-name="plus" unicode="+" horiz-adv-x="380" 
d="M360 346l-5 -102l-116 -3l-3 -105l-105 3v109h-107l-4 99l105 1l4 142l113 -3v-140z" />
    <glyph glyph-name="comma" unicode="," horiz-adv-x="166" 
d="M145 82q5 -51 -4 -84t-26 -53t-39 -28.5t-43 -9.5l-13 48q10 3 26 11t21 28h-38l-5 85z" />
    <glyph glyph-name="hyphen" unicode="-" horiz-adv-x="291" 
d="M271 210l-249 5l-2 89l247 4z" />
    <glyph glyph-name="period" unicode="." horiz-adv-x="142" 
d="M122 -20l-102 2l2 96l98 1z" />
    <glyph glyph-name="slash" unicode="/" horiz-adv-x="526" 
d="M506 790l-394 -959l-92 33l374 977z" />
    <glyph glyph-name="zero" unicode="0" horiz-adv-x="628" 
d="M607 313q-6 -75 -31.5 -135.5t-67 -102.5t-97 -62.5t-121.5 -15.5q-62 5 -114 32.5t-88 74.5t-54.5 112t-12.5 144q5 70 30.5 129t67 101t97 65t120.5 21q68 -2 120.5 -32.5t88 -80.5t52 -115t10.5 -135zM492 328q3 45 -6.5 87.5t-30.5 75.5t-51 54t-68 23
q-40 3 -73.5 -14.5t-58.5 -48t-40.5 -71t-18.5 -85.5q-4 -50 7.5 -93.5t34 -76.5t54 -52t67.5 -21q75 -4 125.5 54.5t58.5 167.5z" />
    <glyph glyph-name="one" unicode="1" horiz-adv-x="281" 
d="M261 -14l-228 -3v105l54 -2l4 475l-59 -11l-12 93l180 55l4 -615l56 -1z" />
    <glyph glyph-name="two" unicode="2" horiz-adv-x="539" 
d="M506 164l-1 -188l-432 2q-12 100 31.5 175t137.5 127q84 46 124.5 99t13.5 114q-16 36 -48.5 53t-72 17t-81.5 -15.5t-78 -44.5l-80 147l108 47l24 -44q26 12 72.5 19t97 0t97.5 -32t72 -78q52 -107 10 -194.5t-160 -163.5q-18 -12 -38 -25.5t-37 -29.5t-29 -32.5
t-14 -34.5l184 4l7 76z" />
    <glyph glyph-name="three" unicode="3" horiz-adv-x="548" 
d="M528 183q-2 -43 -19.5 -80.5t-50.5 -65.5t-80 -44.5t-107 -16.5t-116.5 21.5t-105.5 68.5l73 95q32 -29 74.5 -50.5t81.5 -20.5q56 2 92.5 28t35.5 78q0 31 -17 51t-42.5 31.5t-56.5 15.5t-60 1l-3 94q57 1 98.5 28t40.5 74q-2 40 -25.5 67.5t-80.5 29.5q-20 1 -42 -4.5
t-43 -14.5t-39.5 -21.5t-33.5 -25.5l-82 128l96 55l23 -37q28 14 63 20t66 6q46 0 85 -13.5t67.5 -38t45 -59.5t19.5 -78q1 -19 -3.5 -41t-13 -42t-20 -36.5t-23.5 -25.5q49 -22 77 -70t26 -107z" />
    <glyph glyph-name="four" unicode="4" horiz-adv-x="517" 
d="M497 -20l-266 -3l-1 105l89 -1l2 125l-301 -2l27 480l117 -2l-14 -367h173l4 314l107 5l2 -319h58l2 -107l-59 -1l1 -129l58 -2z" />
    <glyph glyph-name="five" unicode="5" horiz-adv-x="492" 
d="M472 208q0 -44 -20 -85.5t-53 -73t-77 -50t-93 -18.5q-55 1 -110 24t-99 74l69 80q23 -31 64 -53t78 -21q47 1 84 35t38 94q0 29 -11 52.5t-29.5 40t-42.5 26t-50 10.5q-49 1 -95.5 -16t-81.5 -49l-8 398l424 2l-4 -173l-95 -5l-4 74l-196 1l-4 -134q22 6 45 6.5t44 -0.5
q54 0 96.5 -19t71.5 -51t44.5 -75.5t14.5 -93.5z" />
    <glyph glyph-name="six" unicode="6" horiz-adv-x="552" 
d="M532 649l-90 -114q-38 37 -75.5 49.5t-79.5 10.5q-17 -1 -38 -10.5t-40.5 -29t-35.5 -49.5t-23 -71q28 24 63 34t66 11q51 2 96 -17t78 -52.5t52 -78t18 -93.5q-1 -53 -17 -99t-46 -81t-72 -56t-95 -23q-54 -3 -98.5 13.5t-78 47t-56 74t-31.5 95.5q-12 74 -7.5 156.5
t32.5 154t82 120.5t140 55q58 4 89 -8t53 -25l35 38zM414 230q-1 32 -12.5 59t-30 47t-43 30.5t-51.5 9.5q-26 -1 -50.5 -10.5t-43 -29.5t-28 -50t-6.5 -71q5 -62 44 -98.5t92 -36.5q26 0 50 12.5t41.5 33t28 47.5t9.5 57z" />
    <glyph glyph-name="seven" unicode="7" horiz-adv-x="564" 
d="M544 666l-236 -584l87 -1l-3 -90l-278 -4l-2 102l81 -2l181 475l-254 -2l-1 -74l-94 3l-5 184z" />
    <glyph glyph-name="eight" unicode="8" horiz-adv-x="565" 
d="M545 201q0 -48 -18.5 -89.5t-53 -72.5t-82.5 -50t-106 -20q-53 -1 -100.5 16.5t-84 49.5t-58 74.5t-22.5 90.5q-1 64 25 115t75 82q-54 49 -57 121q-1 38 15.5 71t45 58t66 39t78.5 13q44 -1 82 -13t66.5 -34t45.5 -53t19 -70q2 -37 -10 -69t-35 -56q53 -29 81 -82
t28 -121zM372 526q0 34 -29.5 57t-70.5 21q-38 -2 -66 -25.5t-27 -56.5q1 -38 31 -63t74 -22q40 3 64 27t24 62zM429 203q-1 61 -44 99.5t-100 41.5q-29 1 -54.5 -9t-45 -28.5t-30.5 -44.5t-11 -57t12.5 -56t32.5 -42t45 -26.5t51 -10.5q25 -1 51 7.5t47 25.5t33.5 42
t12.5 58z" />
    <glyph glyph-name="nine" unicode="9" horiz-adv-x="538" 
d="M511 463q10 -69 5.5 -149t-28.5 -150.5t-71 -120.5t-124 -58q-50 -5 -91.5 5.5t-63.5 23.5l-34 -39l-80 49l82 127q38 -36 80.5 -52t83.5 -13q19 2 40.5 13.5t40 31.5t31.5 48.5t16 63.5q-27 -25 -61 -37t-64 -14q-51 -4 -96.5 13.5t-80 49.5t-55 77t-21.5 97
q-1 53 13.5 97.5t43 78t70 54.5t94.5 25q51 4 96.5 -9.5t81.5 -42t60 -71.5t32 -98zM397 463q-10 59 -50.5 89.5t-93.5 27.5q-57 -4 -90 -45.5t-31 -96.5q1 -30 12.5 -56.5t30.5 -46.5t43 -31.5t50 -9.5q30 2 56.5 13t45 32t26.5 52t1 72z" />
    <glyph glyph-name="colon" unicode=":" horiz-adv-x="145" 
d="M123 287l-2 -93l-98 -1l-2 96zM125 87l-2 -85l-101 -1l-2 88z" />
    <glyph glyph-name="semicolon" unicode=";" horiz-adv-x="168" 
d="M130 292l-2 -96l-107 8l-1 91zM147 82q4 -51 -5 -84t-26 -53t-38.5 -28.5t-42.5 -9.5l-13 48q10 3 26 11t21 28h-39l-4 85z" />
    <glyph glyph-name="less" unicode="&#x3c;" horiz-adv-x="425" 
d="M405 434l-212 -107l192 -92l-40 -94l-316 122l-9 99l356 154z" />
    <glyph glyph-name="equal" unicode="=" horiz-adv-x="380" 
d="M341 348l-307 4l-2 89l305 4zM360 194l-340 4v93l338 6z" />
    <glyph glyph-name="greater" unicode="&#x3e;" horiz-adv-x="425" 
d="M405 362l-10 -99l-316 -122l-40 94l192 92l-211 107l29 82z" />
    <glyph glyph-name="question" unicode="?" horiz-adv-x="527" 
d="M507 454q-1 -42 -16.5 -80t-44 -69t-68.5 -52t-89 -28l-2 -75l-113 3l-3 162q112 5 160.5 45.5t46.5 96.5q-2 48 -33 78t-81 32q-19 1 -41 -3t-43 -11.5t-39 -18.5t-30 -24l-76 164l100 41l26 -52q31 13 59.5 16.5t57.5 4.5q55 1 98 -17.5t72.5 -51t44.5 -74.5t14 -87z
M282 -2l-123 2l2 94l119 1z" />
    <glyph glyph-name="at" unicode="@" horiz-adv-x="496" 
d="M476 372q-1 -80 -34.5 -117.5t-74.5 -37.5q-24 0 -38 6t-28 19q-25 -10 -51.5 -10.5t-48.5 8t-36.5 26t-14.5 43.5q-1 37 23.5 60t62.5 25q17 1 28.5 -1.5t18.5 -7.5q0 15 -8.5 26.5t-23 15t-32 -1.5t-35.5 -22l-31 45q11 11 27 20t35.5 13.5t41 3.5t41.5 -12
q22 -12 33 -27t15 -33.5t4 -41v-48.5q0 -27 5 -35.5t15 -8.5t25 21.5t13 76.5q-1 55 -40.5 98t-116.5 41q-38 -1 -67 -14.5t-49 -34.5t-30 -48t-10 -56q0 -57 21 -86t60 -50l-37 -52q-49 22 -84 66t-35 125q0 40 15 79.5t44.5 70t73 49t99.5 18.5q62 0 104.5 -19t69.5 -49
t38.5 -67.5t11.5 -75.5zM287 297l-1 37q-4 4 -13 8t-20 4q-43 0 -41 -35q0 -11 8 -19t19.5 -10.5t24.5 1t23 14.5z" />
    <glyph glyph-name="A" unicode="A" horiz-adv-x="612" 
d="M592 5l-288 -8l-4 102l106 -1l-32 115h-153l-58 -228l-139 -2l-4 101l58 2l129 498l-93 2l1 94l247 1l168 -581l59 -2zM352 306l-57 190l-47 -191z" />
    <glyph glyph-name="B" unicode="B" horiz-adv-x="539" 
d="M519 172q-1 -79 -53 -127.5t-156 -49.5l-77 -2.5t-206 0.5l-7 100l66 1l-11 483l-46 -3l-5 93q165 18 266 4q104 -13 146 -54t48 -105q4 -60 -20.5 -105t-68.5 -62q27 -5 50 -21.5t39.5 -40.5t25.5 -52.5t9 -58.5zM364 480q1 34 -16 54t-43 29.5t-56.5 11.5t-56.5 0
l2 -200q31 0 61 4t54 15t39.5 31.5t15.5 54.5zM393 193q1 37 -18.5 58t-49.5 31t-65 10.5t-65 -3.5l1 -193h74.5t62.5 8t43.5 28t16.5 61z" />
    <glyph glyph-name="C" unicode="C" horiz-adv-x="562" 
d="M542 674l-67 -169q-29 24 -67.5 40t-89.5 11q-39 -4 -73 -25t-58.5 -55.5t-37 -81t-8.5 -101.5q5 -55 25 -90.5t47 -55.5t56.5 -28t52.5 -8q44 -1 88 14t79 49l51 -90q-36 -41 -89 -60.5t-134 -23.5q-43 -2 -92 12t-92 48t-74 89t-37 135q-8 97 17.5 168.5t68.5 119.5
t96 72.5t101 26.5q36 1 67.5 -2.5t50.5 -7.5l16 46z" />
    <glyph glyph-name="D" unicode="D" horiz-adv-x="582" 
d="M561 319q-3 -81 -29.5 -140.5t-69 -99t-96.5 -60.5t-113 -26q-52 -5 -111.5 -5t-108.5 3l-7 97l70 2l-7 481l-63 -2l-6 107q25 3 57.5 4t67 0.5t67.5 -2t60 -4.5q72 -6 127 -34.5t92 -75t55 -108.5t15 -137zM440 360q-2 42 -17.5 80.5t-43 67.5t-67 46t-89.5 16l4 -472
q52 1 93 22.5t68.5 57.5t41 83.5t10.5 98.5z" />
    <glyph glyph-name="E" unicode="E" horiz-adv-x="539" 
d="M519 -9l-497 -5l-2 94l62 -5l-1 497l-58 5v101l492 5l-1 -172l-83 -1l-3 70l-227 3l-3 -217l101 -1v125l93 2l-4 -277l-89 -1l-1 64l-102 -2v-185l228 1l1 91l91 4z" />
    <glyph glyph-name="F" unicode="F" horiz-adv-x="531" 
d="M511 505l-76 -4l-6 79l-238 -4l5 -214l113 4l-1 117h89l8 -259l-97 -4l-4 58l-107 -4l-1 -190l128 2l-1 -104l-300 4l-3 88l63 4l-8 495l-49 2l-3 97l486 5z" />
    <glyph glyph-name="G" unicode="G" horiz-adv-x="658" 
d="M638 79l-4 -96l-154 -4l5 73q-11 -16 -29 -27t-40.5 -18.5t-47 -11t-46.5 -3.5q-48 -2 -99 15t-94 53t-73 93t-35 137q-7 102 23 174.5t79 119.5t108 70t110 25q37 1 68 -3t53 -11l18 50l106 -34l-66 -168q-29 26 -73.5 42.5t-96.5 11.5q-44 -4 -83.5 -24.5t-68 -55
t-43.5 -82t-11 -105.5q4 -60 26 -99t50.5 -61.5t57.5 -31t48 -8.5q32 1 62 12t53 33.5t36.5 58.5t13.5 88h-90l-2 -72l-92 -4l-3 171l285 8l-3 -315z" />
    <glyph glyph-name="H" unicode="H" horiz-adv-x="607" 
d="M587 76l-1 -90l-181 -2l3 273l-204 1l1 -153l71 -1l2 -102l-258 -2v101l58 1l4 481h-51l-1 96l239 2v-87l-70 -2l-1 -230l211 3l2 248h-67l-2 89l233 -1l2 -98h-43l-2 -528z" />
    <glyph glyph-name="I" unicode="I" horiz-adv-x="297" 
d="M277 87l-1 -100l-255 2v91h72l-7 518l-64 -3l-2 96h255l-2 -96l-72 -2l-1 -504z" />
    <glyph glyph-name="J" unicode="J" horiz-adv-x="469" 
d="M441 161q-10 -95 -69 -139t-143 -40q-44 2 -76 19t-52.5 43t-30 59t-9.5 67l-41 11l22 104l141 -29q-24 -67 -7.5 -113t63.5 -50q41 -3 62.5 27.5t24.5 87.5q2 36 2.5 84t-0.5 99t-3.5 100.5t-6.5 87.5l-85 -4l-4 99l208 4q7 -124 9.5 -209.5t2.5 -144t-2.5 -96.5
t-5.5 -67z" />
    <glyph glyph-name="K" unicode="K" horiz-adv-x="600" 
d="M580 -42l-143 -6l-164 326l-65 -78v-112l92 -1l3 -95l-273 -2l-2 100l67 -1l-3 538h-72v93l188 1l2 -363l190 233h-47v85h224l-2 -100l-54 -1l-164 -196l169 -328l54 -1v-92z" />
    <glyph glyph-name="L" unicode="L" horiz-adv-x="535" 
d="M515 8l-494 -1l2 100l66 1l-2 510l-67 -1l3 93l287 2l2 -89l-105 -2l-7 -511l218 3l7 102l87 1z" />
    <glyph glyph-name="M" unicode="M" horiz-adv-x="751" 
d="M731 -4l-274 -5l-1 96l93 3l-9 416l-112 -385l-91 -6l-132 322v-342l93 -2l-1 -84l-276 2l-1 92h75l5 488l-72 -1l-1 93h187l163 -392l119 406l210 -2l3 -76l-59 -2l7 -528h71z" />
    <glyph glyph-name="N" unicode="N" horiz-adv-x="640" 
d="M620 619l-46 -2l-7 -589l-128 -3l-249 446l2 -385l104 -2l-1 -83l-271 -1l-1 99l61 -1l-9 506l-54 2l-1 78h165l275 -467l2 398l-87 -2l-3 82l248 -3v-73z" />
    <glyph glyph-name="O" unicode="O" horiz-adv-x="679" 
d="M658 366q6 -78 -14.5 -142.5t-61 -112t-97 -76t-122.5 -33.5q-70 -5 -129.5 16.5t-104.5 64t-73.5 103t-34.5 132.5t14 136.5t60 114.5t95.5 81.5t121.5 35.5t126 -18t107 -65.5t77 -104t36 -132.5zM528 355q-4 46 -21.5 86t-45 69t-65 45t-82.5 13q-38 -2 -71 -22
t-56.5 -51.5t-35 -73t-7.5 -87.5q5 -51 22.5 -92t44 -69.5t60.5 -43.5t72 -12q39 3 74 21t61.5 49.5t40 74t9.5 93.5z" />
    <glyph glyph-name="P" unicode="P" horiz-adv-x="522" 
d="M502 465q0 -47 -16.5 -88t-52.5 -72t-94 -49.5t-143 -21.5l2 -143l110 -3l-1 -99l-286 2l-1 80h58l-3 514l-53 -1v95q84 9 145 8t112 -4q60 -4 102.5 -25.5t69.5 -53.5t39 -68.5t12 -70.5zM378 472q-1 18 -6 38.5t-24 38t-55.5 28t-99.5 7.5l7 -244q62 0 97.5 12t54 31.5
t23 43t3.5 45.5z" />
    <glyph glyph-name="Q" unicode="Q" horiz-adv-x="686" 
d="M702 -87q0 -41 -16.5 -66t-38.5 -38.5t-44.5 -18t-36.5 -4.5t-34.5 4.5t-42 16.5t-42.5 33.5t-34 54.5l-39 92q-7 0 -11 -1q-66 -4 -126 20t-106.5 68.5t-75.5 106t-34 133.5t16.5 134t62 109.5t97.5 76t123 33.5q66 4 126.5 -17t108 -62.5t77 -100t33.5 -130.5
q7 -127 -47 -216t-143 -128l28 -70q13 -34 31.5 -47t35 -13t28.5 9.5t13 20.5q2 19 -13.5 25.5t-26.5 -9.5l-62 46q7 21 30 37.5t47 17.5q15 0 35 -4t38 -16.5t30.5 -35.5t12.5 -61zM537 339q-3 45 -21.5 84.5t-47.5 67.5t-65.5 43.5t-76.5 12.5q-39 -3 -72.5 -23t-57.5 -52
t-36.5 -73t-9.5 -86q3 -40 18 -75.5t39 -63t54.5 -45t64.5 -22.5l-18 44h-46v85l125 -2l42 -109q52 28 82.5 86.5t25.5 127.5z" />
    <glyph glyph-name="R" unicode="R" horiz-adv-x="580" 
d="M560 -40v-73l-153 -5l-164 354h-49l1 -155h56l1 -83l-230 2l-2 81h64l-7 513h-55v92l225 1q65 0 111.5 -17.5t77 -47t45.5 -68t17 -79.5q2 -29 -4.5 -61t-23.5 -61.5t-45.5 -54.5t-72.5 -41l148 -296zM385 458q0 30 -9 56t-31 44.5t-59 28.5t-92 7l1 -263q37 -1 71.5 5
t60.5 21.5t42 40.5t16 60z" />
    <glyph glyph-name="S" unicode="S" horiz-adv-x="430" 
d="M409 719l-3 -225h-92q-5 35 -29.5 59t-58.5 25q-32 1 -59 -19.5t-28 -62.5q0 -35 19 -62t47 -51.5t60.5 -48t60 -51.5t45.5 -62t17 -79q0 -28 -11.5 -55t-33 -48t-54.5 -34.5t-76 -13.5q-45 0 -83.5 21.5t-61 57t-23 80t30.5 90.5l91 -51q-11 -23 -11.5 -43t7 -35
t21.5 -24.5t31 -9.5q31 0 46 21.5t15 50.5q0 23 -18.5 44.5t-46.5 44t-61 47.5t-61 54.5t-46.5 64.5t-18.5 78q0 49 15.5 86.5t41 62.5t57.5 38t65 14q29 1 60 -7.5t47 -23.5v69z" />
    <glyph glyph-name="T" unicode="T" horiz-adv-x="596" 
d="M576 526l-85 -1l-1 55l-131 -1l-4 -500h86l-2 -88l-282 -1l-3 96h90l-1 491l-129 -1l-1 -63l-92 1l-1 168l554 5z" />
    <glyph glyph-name="U" unicode="U" horiz-adv-x="631" 
d="M611 -14l-195 1l-1 60q-13 -16 -47 -32t-74 -16q-39 0 -76 11t-66.5 32.5t-49.5 52.5t-26 70l-8 101t-1 308l-46 3l-1 98l182 -2q-2 -60 -3.5 -125.5t-1.5 -127.5t0.5 -116t2.5 -92q1 -22 11 -41t25.5 -32.5t34.5 -21t38 -7.5q77 3 103 77v386l-81 1l-3 77l206 -2
l-6 -579l83 -4v-80z" />
    <glyph glyph-name="V" unicode="V" horiz-adv-x="614" 
d="M594 681l-2 -90h-53l-157 -596l-271 -2l-4 84l103 4l-128 496l-62 1v94l147 1l145 -545l107 452h-94l-5 102z" />
    <glyph glyph-name="W" unicode="W" horiz-adv-x="812" 
d="M792 592l-61 -1l-133 -569l-120 -4l-80 264l-67 -292l-213 4l-3 75l77 -1l-118 514h-54l2 97l148 2l109 -488l66 290l114 1l68 -270l84 358l-83 1l-1 104l261 -2z" />
    <glyph glyph-name="X" unicode="X" horiz-adv-x="613" 
d="M593 673l-2 -79l-52 1l-172 -270l168 -256h53l-1 -98l-245 -2v81l52 2l-103 170l-100 -153l78 -1l-5 -78h-241l-3 99l57 1l155 232l-153 248l-53 -2l-4 89l239 -4v-77l-58 -2l95 -151l109 163l-69 -1l2 94z" />
    <glyph glyph-name="Y" unicode="Y" horiz-adv-x="580" 
d="M560 610l-51 -3l-169 -326l3 -213h72l3 -76l-263 -3l1 92h70l-3 182l-154 321h-49l2 84l130 2l139 -286l98 207h-67l-2 88l237 4z" />
    <glyph glyph-name="Z" unicode="Z" horiz-adv-x="509" 
d="M489 -6l-468 -4l282 564l-170 -1l-4 -81l-108 -1l-1 189l464 -3l-265 -560l176 -1l4 98h87z" />
    <glyph glyph-name="bracketleft" unicode="[" horiz-adv-x="237" 
d="M217 828l-1 -82l-71 1l-4 -814l68 -3l-1 -88l-173 -1l-15 983z" />
    <glyph glyph-name="backslash" unicode="\" horiz-adv-x="526" 
d="M506 -136l-92 -33l-394 959l112 51z" />
    <glyph glyph-name="bracketright" unicode="]" horiz-adv-x="237" 
d="M217 824l-14 -983l-174 1v88l68 3l-4 814l-72 -1l-1 82z" />
    <glyph glyph-name="asciicircum" unicode="^" horiz-adv-x="327" 
d="M307 597l-41 -36l-95 62l-96 -75l-55 44l140 127z" />
    <glyph glyph-name="underscore" unicode="_" horiz-adv-x="605" 
d="M605 -31l-1 -93l-599 -15l-5 117z" />
    <glyph glyph-name="grave" unicode="`" horiz-adv-x="272" 
d="M252 639l-82 5l-150 194l119 -9z" />
    <glyph glyph-name="a" unicode="a" horiz-adv-x="466" 
d="M446 -14l-156 -4v38q-29 -28 -74.5 -32.5t-89 10.5t-74.5 48.5t-32 82.5q-1 71 45.5 114t117.5 46q33 2 58.5 -5.5t40.5 -18.5q0 31 -16.5 54.5t-44 31.5t-63 -1.5t-74.5 -42.5l-48 75q18 18 46 34t62.5 24t73 5t76.5 -23q42 -22 62.5 -53.5t28.5 -73t8.5 -94.5t1.5 -119
l47 1zM285 105l-2 73q-12 8 -30.5 14.5t-40.5 7.5q-40 0 -60 -18.5t-19 -49.5q0 -22 15 -38.5t37.5 -22.5t49 1.5t50.5 32.5z" />
    <glyph glyph-name="b" unicode="b" horiz-adv-x="543" 
d="M523 190q-1 -42 -17 -77t-43.5 -60.5t-64 -40t-77.5 -14.5q-34 -1 -68 9.5t-56 27.5v-56h-177v94l65 1l7 508l-66 -1l-4 95l174 4l-2 -304q59 40 126 37q57 -1 96 -20.5t63 -51t34.5 -71t9.5 -80.5zM411 208q-2 45 -33 73t-69 28q-33 0 -62 -16.5t-44 -39.5v-105
q16 -25 46.5 -37.5t58.5 -11.5q51 1 78 31.5t25 77.5z" />
    <glyph glyph-name="c" unicode="c" horiz-adv-x="475" 
d="M455 411l-83 -149q-22 34 -60.5 52t-74.5 16q-46 -2 -75 -33.5t-28 -85.5q0 -55 31.5 -88t73.5 -35q32 -1 69.5 16t57.5 46l55 -65q-41 -48 -88 -70t-96 -22q-43 0 -82.5 17.5t-69 47.5t-47 68.5t-18.5 80.5q-1 46 15 86t44 70t66 47.5t82 18.5q28 0 56.5 -3.5
t53.5 -19.5l28 53z" />
    <glyph glyph-name="d" unicode="d" horiz-adv-x="539" 
d="M519 695v-94l-61 -4l-7 -534l50 2v-95l-160 -4l1 67q-17 -18 -48 -27.5t-60 -10.5q-40 -1 -78 13t-68 40.5t-48.5 64.5t-19.5 86q-1 43 13.5 85t42.5 74.5t69.5 52.5t94.5 19q27 0 55 -9t45 -24v301zM337 286q-19 22 -47 35t-50 11q-27 -2 -48.5 -13.5t-35.5 -29
t-21.5 -37.5t-7.5 -40q-1 -52 30 -88.5t81 -37.5q29 -1 54.5 14.5t43.5 43.5z" />
    <glyph glyph-name="e" unicode="e" horiz-adv-x="447" 
d="M426 175l-295 -9q0 -18 9.5 -33t24 -26.5t32.5 -18t36 -7.5q26 -1 52.5 8t42.5 26l57 -73q-31 -34 -69 -46.5t-82 -11.5q-43 1 -83 17t-70 46.5t-46.5 75.5t-13.5 105q3 54 24 93.5t51.5 64.5t66.5 37t69 12q27 0 62.5 -10.5t66 -39t50.5 -79.5t15 -131zM321 262
q-5 38 -32.5 58t-57.5 19q-31 -1 -60.5 -23t-34.5 -61z" />
    <glyph glyph-name="f" unicode="f" horiz-adv-x="420" 
d="M400 577q-2 -31 -12.5 -53t-26.5 -35t-35 -18.5t-37 -4.5q-42 2 -68 32t-11 81l71 -12q-1 -8 4 -13t13 -5q10 -1 14 7t5 18q1 17 -14 32.5t-46 15.5t-47.5 -22t-16.5 -51l2 -161l133 1v-87l-135 -3l-5 -205l96 2v-99l-263 -2l-1 93l75 3l-7 424q-1 53 12.5 90.5t36 61.5
t53 35t63.5 11q31 0 58 -9t47.5 -26t31.5 -42.5t10 -58.5z" />
    <glyph glyph-name="g" unicode="g" horiz-adv-x="527" 
d="M507 353l-48 -5l-12 -446q-1 -50 -17 -86t-41 -58.5t-57.5 -33.5t-68.5 -12q-27 -1 -54 8t-49.5 25.5t-37 41t-15.5 55.5q-2 50 25 90t81 42q35 2 62 -19t39 -58l-73 -36q-12 14 -21 7.5t-9 -19.5q0 -10 11 -21.5t47 -9.5q26 2 46.5 25.5t21.5 61.5l2 130
q-25 -19 -50 -26t-71 -6q-41 1 -77.5 19t-63.5 47t-42.5 68t-14.5 83t17 82t42.5 65t62.5 42.5t77 14.5q72 -2 121 -36l4 61l163 -3v-93zM334 280q-14 20 -38.5 34t-58.5 13q-53 -2 -78 -36.5t-26 -81.5q-1 -43 31.5 -74.5t80.5 -32.5q25 0 49 11t38 35z" />
    <glyph glyph-name="h" unicode="h" horiz-adv-x="528" 
d="M508 7l-156 -3q2 70 4 129t-1.5 103t-15 70t-36.5 30q-19 3 -36.5 -3.5t-32 -18.5t-25.5 -28t-19 -32l-3 -178l59 2v-92l-221 4l-5 86h55l5 516l-51 -1v95l167 1l-2 -281q22 24 61 39t89 4q48 -10 74 -42t37.5 -79t13 -105.5t0.5 -121.5l39 -1v-93z" />
    <glyph glyph-name="i" unicode="i" horiz-adv-x="287" 
d="M204 543q2 -31 -18.5 -52.5t-51.5 -21.5t-55.5 17t-24.5 52q0 31 19.5 54.5t50.5 23.5t55 -19t25 -54zM267 1h-229l-3 90l69 3l3 232l-86 4l-1 94l189 5l1 -331l57 -2v-95z" />
    <glyph glyph-name="j" unicode="j" horiz-adv-x="284" 
d="M254 547q2 -30 -18 -51t-50 -21q-29 0 -53 16t-24 50q0 30 19 52.5t49 22.5q29 0 52 -17.5t25 -51.5zM264 -60q1 -48 -13 -86.5t-37.5 -65.5t-55.5 -42t-67 -16q-31 -1 -60.5 7t-52 26t-37 46.5t-15.5 67.5q-1 24 8 45t24.5 37.5t35.5 26t41 9.5q25 0 43 -7t30 -19
t18 -26.5t9 -27.5l-74 -33q-3 8 -9 10.5t-11.5 1t-9.5 -7t-2 -15.5q3 -17 19.5 -27t39.5 -6q34 4 49.5 35t14.5 94l-7 378h-108l-1 78l221 2z" />
    <glyph glyph-name="k" unicode="k" horiz-adv-x="566" 
d="M546 584l-207 -247l128 -245l57 -1l8 -106l-131 -3l-141 267l-69 -79l-1 -87l93 -1l1 -88h-264l1 90l64 -1l-6 533h-58v81l182 -1l-4 -360l210 254z" />
    <glyph glyph-name="l" unicode="l" horiz-adv-x="281" 
d="M261 0l-218 -4l-1 103l55 -1l-4 540l-72 -1l-1 82l180 -3l2 -621l58 -2z" />
    <glyph glyph-name="m" unicode="m" horiz-adv-x="722" 
d="M702 12l-158 -1l-1 288q0 37 -18.5 54t-40 16t-39.5 -20t-18 -54l-0.5 -51.5t1.5 -185.5h72v-68l-192 -3q4 170 3.5 250.5l-0.5 80.5q0 24 -16 37.5t-36 13t-36 -17.5t-16 -53v-10t0.5 -41.5t1 -89.5t0.5 -153l-174 1l-1 92l60 2l-9 322l-64 -2l-1 73l172 1l4 -67
q18 22 43 31.5t60 10.5q28 0 56.5 -14t38.5 -38q20 28 51.5 39.5t59.5 12.5q62 2 103 -39t42 -112v-218h51z" />
    <glyph glyph-name="n" unicode="n" horiz-adv-x="525" 
d="M505 -9l-159 1q3 157 3 226.5v69.5q0 24 -17 40t-41.5 19t-50.5 -8.5t-42 -41.5l-5 -295l-163 -1v72l56 2l2 325l-66 -3l-2 73l176 3v-67q23 26 54.5 35t56.5 10q37 2 65 -11t47 -34t29 -46.5t10 -48.5v-60.5t-1 -166.5l48 3v-96z" />
    <glyph glyph-name="o" unicode="o" horiz-adv-x="484" 
d="M464 218q-1 -47 -16 -88.5t-42 -72t-65 -49.5t-86 -21q-46 -2 -86.5 11t-71.5 39t-51 64t-25 85q-5 55 10.5 100.5t46 79t73 53t91.5 21.5q46 2 87 -16t71 -49t47.5 -72t16.5 -85zM361 213q0 24 -10 47.5t-26.5 42t-38 29.5t-45.5 11q-24 -1 -45.5 -13.5t-38 -33t-25 -47
t-6.5 -54.5q4 -53 39 -82t83 -29q24 0 44.5 11t35.5 29t24 41.5t9 47.5z" />
    <glyph glyph-name="p" unicode="p" horiz-adv-x="540" 
d="M520 225q1 -41 -10.5 -81t-37 -72.5t-65.5 -53t-97 -21.5q-69 -2 -127 38l1 -206l84 2l3 -103l-251 4l1 84l56 3l-3 536l-50 1v84l162 6v-61q22 17 56.5 27.5t68.5 9.5q41 -1 78 -16t66 -41.5t46.5 -62t18.5 -77.5zM398 208q3 46 -23.5 79t-76.5 34q-29 0 -59.5 -12.5
t-46.5 -36.5v-114q15 -24 44 -40t62 -16q38 0 68 30t32 76z" />
    <glyph glyph-name="q" unicode="q" horiz-adv-x="544" 
d="M688 -161q-1 -39 -15.5 -67.5t-37 -46.5t-52 -26t-60.5 -7q-70 1 -118 56t-50 151l-2 145q-29 -19 -59.5 -31.5t-63.5 -11.5q-57 1 -97 21t-65.5 51t-37 70t-10.5 80q1 42 18.5 77.5t46.5 62t66 41.5t78 16q34 0 68.5 -12t56.5 -29v55l165 -9l-1 -91l-53 -1l-2 -402
q-1 -63 14 -95t49 -37q23 -3 40 7t20 27q2 10 -2 15.5t-10 7t-12 -1t-8 -10.5l-74 33q4 27 26 53.5t74 26.5q21 0 41 -9.5t35 -26t24 -37.5t8 -45zM348 168v102q-16 24 -46.5 36.5t-59.5 12.5q-51 -1 -77 -34t-24 -80q2 -45 32.5 -72t68.5 -27q33 0 62 19t44 43z" />
    <glyph glyph-name="r" unicode="r" horiz-adv-x="431" 
d="M409 326q7 -43 -9 -69.5t-33 -40.5l-74 57q23 17 15 38.5t-38 25.5q-12 2 -25.5 -1t-25.5 -11.5t-20 -21.5t-8 -31l-2 -196l90 -2l2 -75l-254 -3l-1 87h62l-2 277l-65 3l-1 83h165l-1 -51q17 20 42.5 27.5t51.5 7.5q13 0 33.5 -5t40.5 -17t36 -32t21 -50z" />
    <glyph glyph-name="s" unicode="s" horiz-adv-x="339" 
d="M319 320l-80 -4q-1 30 -15.5 44.5t-39.5 15.5q-22 0 -42.5 -13t-19.5 -41q1 -27 30 -47t63 -42t61.5 -51.5t25.5 -76.5q-2 -49 -31 -84t-98 -36q-34 0 -65 11.5t-51 34t-26 55.5t9 75l85 -32q-10 -26 0.5 -41.5t26.5 -18.5t31.5 6.5t16.5 33.5q0 24 -26.5 42.5
t-59.5 40.5t-61.5 51t-31.5 74q-5 55 18.5 89t58 49t72 11.5t62.5 -23.5v42l81 3z" />
    <glyph glyph-name="t" unicode="t" horiz-adv-x="443" 
d="M423 129q-1 -41 -14 -69t-34 -45.5t-49 -25.5t-59 -8t-61.5 11t-55.5 34t-40.5 58.5t-15.5 85.5l-2 225h-71l-1 102l76 1l-2 182h105l2 -180l166 2l-3 -86l-162 -2l3 -233q0 -18 2.5 -35.5t9.5 -31t20.5 -22t34.5 -9.5q32 -1 44 13.5t13 29.5q2 13 -2.5 20t-11 7.5
t-13 -6t-8.5 -19.5l-71 31q1 27 22 54t73 29q48 2 77 -32t28 -81z" />
    <glyph glyph-name="u" unicode="u" horiz-adv-x="511" 
d="M491 46l-2 -76h-137l3 67q-17 -19 -39 -32t-70 -13q-26 0 -53.5 9t-51 27.5t-40 46t-20.5 64.5l-4.5 64.5t1.5 168.5h-55l-3 64l163 -1q-2 -85 -2.5 -139.5t0 -86t1 -44l0.5 -12.5q0 -35 27 -56t54 -20q57 3 78 56l5 252h-53l-2 82l166 -5l-11 -415z" />
    <glyph glyph-name="v" unicode="v" horiz-adv-x="494" 
d="M474 498l-6 -95l-41 -1l-121 -410h-123l-111 354l-47 1l-5 88l203 5l4 -83l-51 -1l69 -220l74 276h-42l3 82z" />
    <glyph glyph-name="w" unicode="w" horiz-adv-x="683" 
d="M663 489l-128 -505l-140 -5l-65 224l-67 -210l-198 2l-6 80l81 2l-73 275l-47 -1l1 86l134 4l70 -266l66 205l100 -3l67 -266l74 293l-110 2l1 85z" />
    <glyph glyph-name="x" unicode="x" horiz-adv-x="463" 
d="M443 456l-2 -79l-30 -1l-120 -158l113 -150h37l-1 -67l-202 -8l-7 75l59 1l-60 76l-67 -89h40v-64l-179 2l-1 82l43 -1l105 139l-107 141h-44l2 87h186l3 -64l-60 -3l73 -92l68 91l-41 1l3 78z" />
    <glyph glyph-name="y" unicode="y" horiz-adv-x="505" 
d="M485 415l-197 -573q-10 -30 -27.5 -49.5t-38 -30.5t-41 -15.5t-36.5 -4.5q-17 0 -39.5 4t-43.5 16t-35.5 35t-14.5 61q0 33 11.5 54t28 32t35.5 15t34 4q29 -1 46 -17.5t19 -33.5l-53 -36q-11 14 -24.5 6.5t-12.5 -23.5q0 -13 12.5 -21t29 -7t33.5 14t27 42l52 161
l-141 211l-80 3l-7 102l132 5l138 -196l54 169l-78 -1l-3 72z" />
    <glyph glyph-name="z" unicode="z" horiz-adv-x="452" 
d="M431 90q-5 -44 -35 -70t-95 -26l-266 2l203 342l-132 -3l-4 -75l-76 -2l-6 167l382 -2l-205 -338l124 -4q17 0 23 9t5 17q0 13 -15.5 17.5t-25.5 -18.5l-63 28q11 29 37.5 48t62.5 17q35 -3 63 -33.5t23 -75.5z" />
    <glyph glyph-name="braceleft" unicode="{" horiz-adv-x="311" 
d="M291 -127l-35 -99q-70 15 -106 53.5t-52 90t-18.5 111t-5 116t-13 105t-41.5 78.5q31 30 41.5 78.5t13 105.5t5 116.5t18.5 111t52 90t106 52.5l35 -99q-44 -17 -64.5 -50t-28 -74t-6.5 -87t0 -91t-8 -85t-30 -68q23 -29 30 -68.5t8 -84.5t0 -91t6.5 -87t28 -74t64.5 -50
z" />
    <glyph glyph-name="bar" unicode="|" horiz-adv-x="157" 
d="M137 774l-9 -861l-93 2l-15 854z" />
    <glyph glyph-name="braceright" unicode="}" horiz-adv-x="311" 
d="M291 328q-31 -30 -41.5 -78.5t-13 -105t-5 -116t-18.5 -111t-52 -90t-106 -53.5l-35 99q44 18 64.5 50.5t28 73.5t6.5 87t0 91t8 85t30 68q-23 28 -30 68t-8 85t0 91t-6.5 87t-28 74t-64.5 50l35 99q70 -14 106 -52.5t52 -90t18.5 -111t5 -116.5t13 -105.5t41.5 -78.5z
" />
    <glyph glyph-name="asciitilde" unicode="~" horiz-adv-x="384" 
d="M364 735q-46 -46 -83 -50.5t-69.5 3.5t-63.5 13t-64 -21l-64 57q57 68 166 29q44 -16 76.5 -3t40.5 27z" />
    <glyph glyph-name="exclamdown" unicode="&#xa1;" horiz-adv-x="169" 
d="M129 737l-2 -91l-105 -1l-2 94zM149 10l-116 -5l8 596l93 -1z" />
    <glyph glyph-name="cent" unicode="&#xa2;" horiz-adv-x="419" 
d="M399 480l-78 -126q-19 26 -44 40t-64 13q-35 -1 -64.5 -24.5t-29.5 -68.5q1 -46 28.5 -70t63.5 -25q29 -1 57.5 11.5t46.5 36.5l54 -58q-28 -31 -58.5 -49.5t-60.5 -23.5l-2 -73l-80 4l-1 70q-30 5 -56.5 21.5t-46.5 40t-32 52t-12 58.5q0 34 10.5 64.5t29.5 54
t45.5 39.5t56.5 22l-1 94l99 6l-2 -99q8 -2 17.5 -5.5t19.5 -9.5l25 45z" />
    <glyph glyph-name="sterling" unicode="&#xa3;" horiz-adv-x="528" 
d="M508 -30q-34 -13 -75 -9.5t-88 8.5t-98.5 4t-106.5 -23l-56 89q20 14 35.5 37.5t24.5 52t10.5 60.5t-6.5 63l-115 -7l-13 109l76 2q-26 52 -34 94t-2.5 76.5t22 62.5t40.5 51q27 26 63.5 38t74 14.5t71.5 -2t55 -12.5l18 43l92 -32l-71 -150q-27 25 -70 40t-91 8
q-28 -5 -49.5 -23.5t-29.5 -49t1 -70.5t43 -86l144 3v-97l-105 -6q7 -50 -1.5 -101.5t-27.5 -84.5q31 6 63 3.5t64.5 -6t64.5 -4.5t63 10z" />
    <glyph glyph-name="currency" unicode="&#xa4;" 
d="M353 401q0 -31 -11.5 -58t-32 -47t-47.5 -31.5t-58 -11.5t-58 11.5t-47 31.5t-31.5 47t-11.5 58t11.5 58t31.5 47t47 31.5t58 11.5t58 -11.5t47.5 -31.5t32 -47t11.5 -58zM308 401q0 43 -30 73.5t-74 30.5q-43 0 -73.5 -30.5t-30.5 -73.5t30.5 -73.5t73.5 -30.5
q44 0 74 30.5t30 73.5z" />
    <glyph glyph-name="yen" unicode="&#xa5;" 
d="M353 401q0 -31 -11.5 -58t-32 -47t-47.5 -31.5t-58 -11.5t-58 11.5t-47 31.5t-31.5 47t-11.5 58t11.5 58t31.5 47t47 31.5t58 11.5t58 -11.5t47.5 -31.5t32 -47t11.5 -58zM308 401q0 43 -30 73.5t-74 30.5q-43 0 -73.5 -30.5t-30.5 -73.5t30.5 -73.5t73.5 -30.5
q44 0 74 30.5t30 73.5z" />
    <glyph glyph-name="brokenbar" unicode="&#xa6;" 
d="M353 401q0 -31 -11.5 -58t-32 -47t-47.5 -31.5t-58 -11.5t-58 11.5t-47 31.5t-31.5 47t-11.5 58t11.5 58t31.5 47t47 31.5t58 11.5t58 -11.5t47.5 -31.5t32 -47t11.5 -58zM308 401q0 43 -30 73.5t-74 30.5q-43 0 -73.5 -30.5t-30.5 -73.5t30.5 -73.5t73.5 -30.5
q44 0 74 30.5t30 73.5z" />
    <glyph glyph-name="section" unicode="&#xa7;" horiz-adv-x="524" 
d="M504 719l-3 -207l-100 -4q-3 32 -21 53.5t-52 22.5q-33 2 -54.5 -14t-21.5 -54q0 -35 18.5 -61.5t46.5 -50t60.5 -46t60.5 -49.5t46.5 -60.5t18.5 -78.5q0 -51 -28.5 -91.5t-83.5 -56.5q1 -6 1.5 -12.5t0.5 -13.5q0 -28 -10 -56.5t-31.5 -52t-56 -38t-84.5 -14.5
q-48 0 -88 23.5t-63 62t-23.5 85.5t30.5 93l97 -56q-22 -45 -4 -76t53 -32q31 0 46 19.5t15 48.5q0 23 -19 44t-47.5 42t-61 44.5t-61 51.5t-47 62.5t-18.5 77.5q0 71 30 116.5t74 67.5q1 47 17 82t41.5 57.5t57 34t64.5 12.5q29 1 55.5 -5t42.5 -21l-1 50h103zM378 177
q0 27 -24 50t-58 47.5t-71 53t-64 64.5q-17 -22 -17 -54q0 -38 22 -65.5t53.5 -51.5t67 -47.5t62.5 -55.5q15 10 22 26t7 33z" />
    <glyph glyph-name="dieresis" unicode="&#xa8;" horiz-adv-x="334" 
d="M313 740q2 -21 -13.5 -37.5t-41.5 -17.5q-22 -1 -39 15t-18 38t15 39t42 19q26 1 39.5 -16t15.5 -40zM133 732q2 -20 -13.5 -37t-41.5 -18q-23 -1 -40 15t-18 38q-1 23 15 40t42 18q26 2 40 -15.5t16 -40.5z" />
    <glyph glyph-name="copyright" unicode="&#xa9;" horiz-adv-x="324" 
d="M304 582q2 -29 -7.5 -54t-28 -44t-44.5 -29.5t-58 -11.5q-60 -1 -100 27.5t-45 83.5q-3 34 7 62t29.5 47.5t47 31t59.5 13.5q60 3 98.5 -32t41.5 -94zM271 584q-3 45 -31 69t-74 21q-48 -2 -82 -32t-29 -83q5 -45 35 -67t76 -21q48 1 77.5 34.5t27.5 78.5zM231 638
l-16 -39q-11 5 -22 9t-24 3q-20 -2 -33 -14t-11 -36q2 -23 18.5 -28.5t27.5 -5.5q24 0 40 12l16 -23q-10 -9 -23.5 -14.5t-34.5 -5.5q-28 -2 -54 14t-29 50q-4 44 20.5 61.5t49.5 20.5q13 2 25 0.5t17 -3.5l4 9z" />
    <glyph glyph-name="ordfeminine" unicode="&#xaa;" 
d="M353 401q0 -31 -11.5 -58t-32 -47t-47.5 -31.5t-58 -11.5t-58 11.5t-47 31.5t-31.5 47t-11.5 58t11.5 58t31.5 47t47 31.5t58 11.5t58 -11.5t47.5 -31.5t32 -47t11.5 -58zM308 401q0 43 -30 73.5t-74 30.5q-43 0 -73.5 -30.5t-30.5 -73.5t30.5 -73.5t73.5 -30.5
q44 0 74 30.5t30 73.5z" />
    <glyph glyph-name="guillemotleft" unicode="&#xab;" 
d="M353 401q0 -31 -11.5 -58t-32 -47t-47.5 -31.5t-58 -11.5t-58 11.5t-47 31.5t-31.5 47t-11.5 58t11.5 58t31.5 47t47 31.5t58 11.5t58 -11.5t47.5 -31.5t32 -47t11.5 -58zM308 401q0 43 -30 73.5t-74 30.5q-43 0 -73.5 -30.5t-30.5 -73.5t30.5 -73.5t73.5 -30.5
q44 0 74 30.5t30 73.5z" />
    <glyph glyph-name="logicalnot" unicode="&#xac;" 
d="M353 401q0 -31 -11.5 -58t-32 -47t-47.5 -31.5t-58 -11.5t-58 11.5t-47 31.5t-31.5 47t-11.5 58t11.5 58t31.5 47t47 31.5t58 11.5t58 -11.5t47.5 -31.5t32 -47t11.5 -58zM308 401q0 43 -30 73.5t-74 30.5q-43 0 -73.5 -30.5t-30.5 -73.5t30.5 -73.5t73.5 -30.5
q44 0 74 30.5t30 73.5z" />
    <glyph glyph-name="registered" unicode="&#xae;" horiz-adv-x="324" 
d="M303 553q-5 -55 -45 -84t-100 -27q-62 2 -101.5 41t-36.5 98q4 59 43.5 92.5t95.5 31.5q31 -1 59 -12t48 -30.5t30.5 -47.5t6.5 -62zM269 558q5 52 -28.5 82.5t-81.5 32.5q-42 1 -72.5 -22t-33.5 -68q-2 -45 27.5 -78t77.5 -35q46 -2 76 20.5t35 67.5zM231 522l-1 -22
l-38 -1l-30 55q-6 -1 -13 0l1 -33h14v-21l-58 1l-1 20h15v103h-14l-1 23h57q33 0 48 -13.5t16 -30.5q1 -12 -6.5 -26.5t-29.5 -19.5l22 -35h19zM197 598q-1 14 -12 20t-36 5l1 -48q19 -1 33.5 3.5t13.5 19.5z" />
    <glyph glyph-name="degree" unicode="&#xb0;" horiz-adv-x="179" 
d="M158 620q0 -29 -17.5 -49.5t-47.5 -22.5q-29 -1 -49.5 16t-23.5 47q-3 34 18 55.5t51 23.5q29 1 49.5 -20.5t19.5 -49.5zM126 619q0 15 -11 28t-26 13q-15 -1 -26 -15t-10 -32q1 -17 12 -25.5t26 -8.5t25 12.5t10 27.5z" />
    <glyph glyph-name="plusminus" unicode="&#xb1;" 
d="M353 401q0 -31 -11.5 -58t-32 -47t-47.5 -31.5t-58 -11.5t-58 11.5t-47 31.5t-31.5 47t-11.5 58t11.5 58t31.5 47t47 31.5t58 11.5t58 -11.5t47.5 -31.5t32 -47t11.5 -58zM308 401q0 43 -30 73.5t-74 30.5q-43 0 -73.5 -30.5t-30.5 -73.5t30.5 -73.5t73.5 -30.5
q44 0 74 30.5t30 73.5z" />
    <glyph glyph-name="twosuperior" unicode="&#xb2;" 
d="M353 401q0 -31 -11.5 -58t-32 -47t-47.5 -31.5t-58 -11.5t-58 11.5t-47 31.5t-31.5 47t-11.5 58t11.5 58t31.5 47t47 31.5t58 11.5t58 -11.5t47.5 -31.5t32 -47t11.5 -58zM308 401q0 43 -30 73.5t-74 30.5q-43 0 -73.5 -30.5t-30.5 -73.5t30.5 -73.5t73.5 -30.5
q44 0 74 30.5t30 73.5z" />
    <glyph glyph-name="threesuperior" unicode="&#xb3;" 
d="M353 401q0 -31 -11.5 -58t-32 -47t-47.5 -31.5t-58 -11.5t-58 11.5t-47 31.5t-31.5 47t-11.5 58t11.5 58t31.5 47t47 31.5t58 11.5t58 -11.5t47.5 -31.5t32 -47t11.5 -58zM308 401q0 43 -30 73.5t-74 30.5q-43 0 -73.5 -30.5t-30.5 -73.5t30.5 -73.5t73.5 -30.5
q44 0 74 30.5t30 73.5z" />
    <glyph glyph-name="acute" unicode="&#xb4;" horiz-adv-x="272" 
d="M252 838l-150 -194l-82 -5l113 190z" />
    <glyph glyph-name="mu" unicode="&#xb5;" 
d="M353 401q0 -31 -11.5 -58t-32 -47t-47.5 -31.5t-58 -11.5t-58 11.5t-47 31.5t-31.5 47t-11.5 58t11.5 58t31.5 47t47 31.5t58 11.5t58 -11.5t47.5 -31.5t32 -47t11.5 -58zM308 401q0 43 -30 73.5t-74 30.5q-43 0 -73.5 -30.5t-30.5 -73.5t30.5 -73.5t73.5 -30.5
q44 0 74 30.5t30 73.5z" />
    <glyph glyph-name="paragraph" unicode="&#xb6;" horiz-adv-x="610" 
d="M590 675l-2 -99l-46 2l-3 -469l48 -2v-97l-147 -4l-8 578l-30 1l-10 -594l-176 -2l-1 99l64 3l3 143q-61 1 -109.5 19.5t-82 49t-52 72t-18.5 88.5q0 34 13 70.5t39.5 68t65.5 54t91 27.5q45 4 81.5 5.5t76 0t87.5 -5t116 -8.5z" />
    <glyph glyph-name="summation" unicode="&#xb7;" 
d="M353 401q0 -31 -11.5 -58t-32 -47t-47.5 -31.5t-58 -11.5t-58 11.5t-47 31.5t-31.5 47t-11.5 58t11.5 58t31.5 47t47 31.5t58 11.5t58 -11.5t47.5 -31.5t32 -47t11.5 -58zM308 401q0 43 -30 73.5t-74 30.5q-43 0 -73.5 -30.5t-30.5 -73.5t30.5 -73.5t73.5 -30.5
q44 0 74 30.5t30 73.5z" />
    <glyph glyph-name="cedilla" unicode="&#xb8;" 
d="M353 401q0 -31 -11.5 -58t-32 -47t-47.5 -31.5t-58 -11.5t-58 11.5t-47 31.5t-31.5 47t-11.5 58t11.5 58t31.5 47t47 31.5t58 11.5t58 -11.5t47.5 -31.5t32 -47t11.5 -58zM308 401q0 43 -30 73.5t-74 30.5q-43 0 -73.5 -30.5t-30.5 -73.5t30.5 -73.5t73.5 -30.5
q44 0 74 30.5t30 73.5z" />
    <glyph glyph-name="onesuperior" unicode="&#xb9;" 
d="M353 401q0 -31 -11.5 -58t-32 -47t-47.5 -31.5t-58 -11.5t-58 11.5t-47 31.5t-31.5 47t-11.5 58t11.5 58t31.5 47t47 31.5t58 11.5t58 -11.5t47.5 -31.5t32 -47t11.5 -58zM308 401q0 43 -30 73.5t-74 30.5q-43 0 -73.5 -30.5t-30.5 -73.5t30.5 -73.5t73.5 -30.5
q44 0 74 30.5t30 73.5z" />
    <glyph glyph-name="ordmasculine" unicode="&#xba;" 
d="M353 401q0 -31 -11.5 -58t-32 -47t-47.5 -31.5t-58 -11.5t-58 11.5t-47 31.5t-31.5 47t-11.5 58t11.5 58t31.5 47t47 31.5t58 11.5t58 -11.5t47.5 -31.5t32 -47t11.5 -58zM308 401q0 43 -30 73.5t-74 30.5q-43 0 -73.5 -30.5t-30.5 -73.5t30.5 -73.5t73.5 -30.5
q44 0 74 30.5t30 73.5z" />
    <glyph glyph-name="guillemotright" unicode="&#xbb;" 
d="M353 401q0 -31 -11.5 -58t-32 -47t-47.5 -31.5t-58 -11.5t-58 11.5t-47 31.5t-31.5 47t-11.5 58t11.5 58t31.5 47t47 31.5t58 11.5t58 -11.5t47.5 -31.5t32 -47t11.5 -58zM308 401q0 43 -30 73.5t-74 30.5q-43 0 -73.5 -30.5t-30.5 -73.5t30.5 -73.5t73.5 -30.5
q44 0 74 30.5t30 73.5z" />
    <glyph glyph-name="onequarter" unicode="&#xbc;" 
d="M353 401q0 -31 -11.5 -58t-32 -47t-47.5 -31.5t-58 -11.5t-58 11.5t-47 31.5t-31.5 47t-11.5 58t11.5 58t31.5 47t47 31.5t58 11.5t58 -11.5t47.5 -31.5t32 -47t11.5 -58zM308 401q0 43 -30 73.5t-74 30.5q-43 0 -73.5 -30.5t-30.5 -73.5t30.5 -73.5t73.5 -30.5
q44 0 74 30.5t30 73.5z" />
    <glyph glyph-name="onehalf" unicode="&#xbd;" 
d="M353 401q0 -31 -11.5 -58t-32 -47t-47.5 -31.5t-58 -11.5t-58 11.5t-47 31.5t-31.5 47t-11.5 58t11.5 58t31.5 47t47 31.5t58 11.5t58 -11.5t47.5 -31.5t32 -47t11.5 -58zM308 401q0 43 -30 73.5t-74 30.5q-43 0 -73.5 -30.5t-30.5 -73.5t30.5 -73.5t73.5 -30.5
q44 0 74 30.5t30 73.5z" />
    <glyph glyph-name="threequarters" unicode="&#xbe;" 
d="M353 401q0 -31 -11.5 -58t-32 -47t-47.5 -31.5t-58 -11.5t-58 11.5t-47 31.5t-31.5 47t-11.5 58t11.5 58t31.5 47t47 31.5t58 11.5t58 -11.5t47.5 -31.5t32 -47t11.5 -58zM308 401q0 43 -30 73.5t-74 30.5q-43 0 -73.5 -30.5t-30.5 -73.5t30.5 -73.5t73.5 -30.5
q44 0 74 30.5t30 73.5z" />
    <glyph glyph-name="questiondown" unicode="&#xbf;" horiz-adv-x="512" 
d="M368 703l-2 -94l-119 -1l-2 97zM492 28l-100 -41l-26 53q-31 -14 -59.5 -17.5t-57.5 -4.5q-55 -1 -98 18t-72.5 51t-44.5 74t-14 88q1 42 16.5 80t44 68.5t68 51.5t89.5 28l2 75l113 -2l3 -162q-111 -4 -160 -45t-47 -97q2 -49 33.5 -79t80.5 -32q19 -1 41 3t43 11.5
t39.5 18.5t29.5 24z" />
    <glyph glyph-name="AE" unicode="&#xc6;" horiz-adv-x="885" 
d="M865 -9l-485 -5l-2 94l62 -5l-6 175l-168 -7l-91 -261l-151 -2l-4 101l58 2l173 472l-134 -4l1 120l743 12l-1 -172l-83 -1l-3 70l-231 4l5 -238l89 -2v126l92 2l-3 -277l-90 -1l-1 64l-85 -4l3 -163l217 1l1 91l91 4zM431 347l-7 208h-50l-72 -206z" />
    <glyph glyph-name="Ccedilla" unicode="&#xc7;" horiz-adv-x="600" 
d="M580 694l-69 -175q-29 25 -69 41t-93 11q-40 -5 -76.5 -26.5t-63.5 -56.5t-41 -82.5t-10 -104.5t26 -94t51 -59t60.5 -31.5t54.5 -9.5q46 0 91 15.5t81 49.5l50 -85q-35 -41 -85.5 -63t-124.5 -27l-1 -16q66 -3 63 -71q-1 -21 -10.5 -34.5t-22.5 -22t-26 -11.5t-22 -3
q-30 0 -67 16l22 46q28 -13 47 -8t20 21q1 9 -5.5 14.5t-17 7.5t-22 0.5t-19.5 -6.5l-1 67q-50 4 -97 22.5t-85.5 54.5t-64 90t-31.5 129q-8 99 21.5 172.5t78 122.5t107 74t107.5 28q37 2 69.5 -2t52.5 -8l16 47z" />
    <glyph glyph-name="Eth" unicode="&#xd0;" 
d="M353 401q0 -31 -11.5 -58t-32 -47t-47.5 -31.5t-58 -11.5t-58 11.5t-47 31.5t-31.5 47t-11.5 58t11.5 58t31.5 47t47 31.5t58 11.5t58 -11.5t47.5 -31.5t32 -47t11.5 -58zM308 401q0 43 -30 73.5t-74 30.5q-43 0 -73.5 -30.5t-30.5 -73.5t30.5 -73.5t73.5 -30.5
q44 0 74 30.5t30 73.5z" />
    <glyph glyph-name="multiply" unicode="&#xd7;" 
d="M353 401q0 -31 -11.5 -58t-32 -47t-47.5 -31.5t-58 -11.5t-58 11.5t-47 31.5t-31.5 47t-11.5 58t11.5 58t31.5 47t47 31.5t58 11.5t58 -11.5t47.5 -31.5t32 -47t11.5 -58zM308 401q0 43 -30 73.5t-74 30.5q-43 0 -73.5 -30.5t-30.5 -73.5t30.5 -73.5t73.5 -30.5
q44 0 74 30.5t30 73.5z" />
    <glyph glyph-name="Oslash" unicode="&#xd8;" horiz-adv-x="679" 
d="M658 379q6 -78 -14.5 -143t-61 -112.5t-97 -76t-122.5 -33.5q-40 -3 -76.5 3.5t-69.5 19.5l-51 -72l-80 55l47 72q-47 43 -76 103.5t-36 134.5q-6 72 14 137t60 115t95.5 81t121.5 35q50 4 96 -8t87 -37l45 68l118 -58l-69 -97q29 -39 47 -86.5t22 -100.5zM528 367
q-5 45 -20 83l-222 -314q26 -9 57 -7q39 3 74 21t61.5 49.5t40 74t9.5 93.5zM429 550q-25 16 -53.5 24t-61.5 7q-38 -2 -71 -22t-56.5 -52t-35 -73.5t-7.5 -87.5t19 -84t37 -66z" />
    <glyph glyph-name="Yacute" unicode="&#xdd;" 
d="M353 401q0 -31 -11.5 -58t-32 -47t-47.5 -31.5t-58 -11.5t-58 11.5t-47 31.5t-31.5 47t-11.5 58t11.5 58t31.5 47t47 31.5t58 11.5t58 -11.5t47.5 -31.5t32 -47t11.5 -58zM308 401q0 43 -30 73.5t-74 30.5q-43 0 -73.5 -30.5t-30.5 -73.5t30.5 -73.5t73.5 -30.5
q44 0 74 30.5t30 73.5z" />
    <glyph glyph-name="Thorn" unicode="&#xde;" 
d="M353 401q0 -31 -11.5 -58t-32 -47t-47.5 -31.5t-58 -11.5t-58 11.5t-47 31.5t-31.5 47t-11.5 58t11.5 58t31.5 47t47 31.5t58 11.5t58 -11.5t47.5 -31.5t32 -47t11.5 -58zM308 401q0 43 -30 73.5t-74 30.5q-43 0 -73.5 -30.5t-30.5 -73.5t30.5 -73.5t73.5 -30.5
q44 0 74 30.5t30 73.5z" />
    <glyph glyph-name="germandbls" unicode="&#xdf;" horiz-adv-x="507" 
d="M486 184q4 -42 -9 -83t-44.5 -73t-81.5 -51t-120 -16l-15 102q29 0 56.5 6t48 19.5t32 34.5t9.5 50q-2 34 -15 54.5t-32.5 31.5t-44.5 15t-51 4v97q47 1 82 26t36 79q1 34 -15 54t-40.5 29.5t-53.5 11.5t-56 0l-3 -583l-146 -1l-3 102l41 1l-9 578q68 6 114 6.5t89 -5.5
q103 -13 146 -54t53 -103q5 -30 0.5 -58.5t-16.5 -52.5t-30 -42t-40 -27q106 -28 118 -152z" />
    <glyph glyph-name="ae" unicode="&#xe6;" horiz-adv-x="712" 
d="M691 175l-294 -9q0 -18 9.5 -33t24 -26.5t32 -18t35.5 -7.5q26 -1 52.5 8t43.5 26l57 -73q-31 -34 -69.5 -46.5t-82.5 -11.5q-37 1 -73 13.5t-65 36.5q-19 -18 -54.5 -34.5t-90.5 -20.5q-21 -1 -54 3.5t-64.5 21t-54 46.5t-23.5 79q-1 71 45.5 114t117.5 46
q33 2 58.5 -5.5t40.5 -18.5q0 31 -16.5 54.5t-44 31.5t-63 -1.5t-74.5 -42.5l-48 75q18 18 46 34t62.5 24t73 5t76.5 -23q36 -19 57 -46q31 30 70.5 44.5t75.5 14.5q27 0 62.5 -10.5t66.5 -39t50.5 -79.5t14.5 -131zM586 262q-4 38 -32 58t-58 19q-31 -1 -60 -23t-34 -61z
M302 115q-10 26 -15 61q-13 8 -33.5 15.5t-41.5 8.5q-40 0 -62 -19t-17 -49q3 -18 12 -30t21.5 -18.5t26 -9t24.5 -1.5q32 3 52 13.5t33 28.5z" />
    <glyph glyph-name="ccedilla" unicode="&#xe7;" horiz-adv-x="503" 
d="M483 428l-89 -152q-24 34 -64.5 52t-79.5 17q-49 -2 -82.5 -33.5t-32.5 -86.5q0 -56 36.5 -89.5t80.5 -35.5q34 -2 74 16.5t62 47.5l59 -67q-38 -43 -82 -66.5t-90 -26.5l-1 -15q49 -2 46 -52q-2 -31 -24 -41.5t-35 -10.5q-24 0 -49 12l15 33q21 -10 35 -6t15 16t-17 16
t-30 -4l-1 51q-43 3 -81 22.5t-66 49.5t-44.5 67.5t-17.5 77.5q-1 47 16 88t46.5 71.5t70 48t87.5 18.5q29 0 59.5 -3.5t57.5 -19.5l30 54z" />
    <glyph glyph-name="eth" unicode="&#xf0;" 
d="M353 401q0 -31 -11.5 -58t-32 -47t-47.5 -31.5t-58 -11.5t-58 11.5t-47 31.5t-31.5 47t-11.5 58t11.5 58t31.5 47t47 31.5t58 11.5t58 -11.5t47.5 -31.5t32 -47t11.5 -58zM308 401q0 43 -30 73.5t-74 30.5q-43 0 -73.5 -30.5t-30.5 -73.5t30.5 -73.5t73.5 -30.5
q44 0 74 30.5t30 73.5z" />
    <glyph glyph-name="divide" unicode="&#xf7;" 
d="M353 401q0 -31 -11.5 -58t-32 -47t-47.5 -31.5t-58 -11.5t-58 11.5t-47 31.5t-31.5 47t-11.5 58t11.5 58t31.5 47t47 31.5t58 11.5t58 -11.5t47.5 -31.5t32 -47t11.5 -58zM308 401q0 43 -30 73.5t-74 30.5q-43 0 -73.5 -30.5t-30.5 -73.5t30.5 -73.5t73.5 -30.5
q44 0 74 30.5t30 73.5z" />
    <glyph glyph-name="oslash" unicode="&#xf8;" horiz-adv-x="484" 
d="M464 230q-1 -47 -16 -88.5t-42 -72t-65 -49.5t-86 -21q-53 -3 -100 16l-33 -45l-70 42l33 48q-55 55 -64 138q-5 55 10.5 100.5t46 79t73 53t91.5 21.5q47 1 90 -17l36 55l93 -53l-47 -66q50 -61 50 -141zM361 225q0 27 -13 56l-132 -181q8 -2 16 -3t16 -1q24 0 44.5 11
t35.5 29t24 41.5t9 47.5zM275 349q-17 6 -34 6q-24 -1 -45.5 -13.5t-38 -33t-25 -46.5t-6.5 -55q1 -17 5.5 -31t12.5 -26z" />
    <glyph glyph-name="yacute" unicode="&#xfd;" 
d="M353 401q0 -31 -11.5 -58t-32 -47t-47.5 -31.5t-58 -11.5t-58 11.5t-47 31.5t-31.5 47t-11.5 58t11.5 58t31.5 47t47 31.5t58 11.5t58 -11.5t47.5 -31.5t32 -47t11.5 -58zM308 401q0 43 -30 73.5t-74 30.5q-43 0 -73.5 -30.5t-30.5 -73.5t30.5 -73.5t73.5 -30.5
q44 0 74 30.5t30 73.5z" />
    <glyph glyph-name="thorn" unicode="&#xfe;" 
d="M353 401q0 -31 -11.5 -58t-32 -47t-47.5 -31.5t-58 -11.5t-58 11.5t-47 31.5t-31.5 47t-11.5 58t11.5 58t31.5 47t47 31.5t58 11.5t58 -11.5t47.5 -31.5t32 -47t11.5 -58zM308 401q0 43 -30 73.5t-74 30.5q-43 0 -73.5 -30.5t-30.5 -73.5t30.5 -73.5t73.5 -30.5
q44 0 74 30.5t30 73.5z" />
    <glyph glyph-name="dotlessi" unicode="&#x131;" horiz-adv-x="287" 
d="M267 1h-229l-3 90l69 3l3 232l-86 4l-1 94l189 5l1 -331l57 -2v-95z" />
    <glyph glyph-name="Lslash" unicode="&#x141;" 
d="M353 401q0 -31 -11.5 -58t-32 -47t-47.5 -31.5t-58 -11.5t-58 11.5t-47 31.5t-31.5 47t-11.5 58t11.5 58t31.5 47t47 31.5t58 11.5t58 -11.5t47.5 -31.5t32 -47t11.5 -58zM308 401q0 43 -30 73.5t-74 30.5q-43 0 -73.5 -30.5t-30.5 -73.5t30.5 -73.5t73.5 -30.5
q44 0 74 30.5t30 73.5z" />
    <glyph glyph-name="lslash" unicode="&#x142;" 
d="M353 401q0 -31 -11.5 -58t-32 -47t-47.5 -31.5t-58 -11.5t-58 11.5t-47 31.5t-31.5 47t-11.5 58t11.5 58t31.5 47t47 31.5t58 11.5t58 -11.5t47.5 -31.5t32 -47t11.5 -58zM308 401q0 43 -30 73.5t-74 30.5q-43 0 -73.5 -30.5t-30.5 -73.5t30.5 -73.5t73.5 -30.5
q44 0 74 30.5t30 73.5z" />
    <glyph glyph-name="OE" unicode="&#x152;" horiz-adv-x="1011" 
d="M991 -9l-432 -5l-3 90q-38 -37 -86 -59t-103 -26q-66 -5 -126 17.5t-107 65.5t-77 103.5t-36 132.5q-6 78 14.5 143t61 112.5t97 76t122.5 33.5q68 5 125.5 -15t101.5 -59l-2 77l446 5v-172l-84 -1l-3 70l-227 3l-3 -217l102 -1v125l92 2l-3 -277l-90 -1l-1 64l-102 -2
v-185l228 1l1 91l91 4zM535 343q-5 50 -22 91.5t-43.5 70t-60.5 43.5t-73 12q-38 -3 -73.5 -21t-62 -49.5t-40.5 -74t-9 -93.5q4 -46 21.5 -86t45 -69t65 -45t82.5 -13q39 2 72 22t56 51.5t34.5 73t7.5 87.5z" />
    <glyph glyph-name="oe" unicode="&#x153;" horiz-adv-x="784" 
d="M763 175l-295 -9q2 -36 34 -60t68 -25q26 -1 52.5 8t43.5 26l56 -73q-31 -34 -69.5 -46.5t-81.5 -11.5q-48 2 -92.5 21.5t-74.5 58.5q-27 -33 -65.5 -53t-87.5 -22q-45 -2 -85 11t-70.5 38.5t-50 62.5t-24.5 84q-5 53 10 98t45 78t72 52t90 21q50 2 93.5 -19.5
t73.5 -57.5q32 41 77 59.5t87 18.5q27 0 62.5 -10.5t66 -39t50.5 -79.5t15 -131zM658 262q-4 38 -32 58t-58 19q-31 -1 -60.5 -23t-34.5 -61zM355 211q0 48 -32.5 86.5t-83.5 39.5q-26 0 -48 -12t-38 -32t-23.5 -46t-5.5 -54q4 -52 39 -80.5t81 -28.5q23 0 43.5 11
t35.5 28.5t23.5 40.5t8.5 47z" />
    <glyph glyph-name="Scaron" unicode="&#x160;" 
d="M353 401q0 -31 -11.5 -58t-32 -47t-47.5 -31.5t-58 -11.5t-58 11.5t-47 31.5t-31.5 47t-11.5 58t11.5 58t31.5 47t47 31.5t58 11.5t58 -11.5t47.5 -31.5t32 -47t11.5 -58zM308 401q0 43 -30 73.5t-74 30.5q-43 0 -73.5 -30.5t-30.5 -73.5t30.5 -73.5t73.5 -30.5
q44 0 74 30.5t30 73.5z" />
    <glyph glyph-name="scaron" unicode="&#x161;" 
d="M353 401q0 -31 -11.5 -58t-32 -47t-47.5 -31.5t-58 -11.5t-58 11.5t-47 31.5t-31.5 47t-11.5 58t11.5 58t31.5 47t47 31.5t58 11.5t58 -11.5t47.5 -31.5t32 -47t11.5 -58zM308 401q0 43 -30 73.5t-74 30.5q-43 0 -73.5 -30.5t-30.5 -73.5t30.5 -73.5t73.5 -30.5
q44 0 74 30.5t30 73.5z" />
    <glyph glyph-name="Zcaron" unicode="&#x17d;" 
d="M353 401q0 -31 -11.5 -58t-32 -47t-47.5 -31.5t-58 -11.5t-58 11.5t-47 31.5t-31.5 47t-11.5 58t11.5 58t31.5 47t47 31.5t58 11.5t58 -11.5t47.5 -31.5t32 -47t11.5 -58zM308 401q0 43 -30 73.5t-74 30.5q-43 0 -73.5 -30.5t-30.5 -73.5t30.5 -73.5t73.5 -30.5
q44 0 74 30.5t30 73.5z" />
    <glyph glyph-name="zcaron" unicode="&#x17e;" 
d="M353 401q0 -31 -11.5 -58t-32 -47t-47.5 -31.5t-58 -11.5t-58 11.5t-47 31.5t-31.5 47t-11.5 58t11.5 58t31.5 47t47 31.5t58 11.5t58 -11.5t47.5 -31.5t32 -47t11.5 -58zM308 401q0 43 -30 73.5t-74 30.5q-43 0 -73.5 -30.5t-30.5 -73.5t30.5 -73.5t73.5 -30.5
q44 0 74 30.5t30 73.5z" />
    <glyph glyph-name="florin" unicode="&#x192;" 
d="M353 401q0 -31 -11.5 -58t-32 -47t-47.5 -31.5t-58 -11.5t-58 11.5t-47 31.5t-31.5 47t-11.5 58t11.5 58t31.5 47t47 31.5t58 11.5t58 -11.5t47.5 -31.5t32 -47t11.5 -58zM308 401q0 43 -30 73.5t-74 30.5q-43 0 -73.5 -30.5t-30.5 -73.5t30.5 -73.5t73.5 -30.5
q44 0 74 30.5t30 73.5z" />
    <glyph glyph-name="circumflex" unicode="&#x2c6;" 
d="M353 401q0 -31 -11.5 -58t-32 -47t-47.5 -31.5t-58 -11.5t-58 11.5t-47 31.5t-31.5 47t-11.5 58t11.5 58t31.5 47t47 31.5t58 11.5t58 -11.5t47.5 -31.5t32 -47t11.5 -58zM308 401q0 43 -30 73.5t-74 30.5q-43 0 -73.5 -30.5t-30.5 -73.5t30.5 -73.5t73.5 -30.5
q44 0 74 30.5t30 73.5z" />
    <glyph glyph-name="caron" unicode="&#x2c7;" 
d="M353 401q0 -31 -11.5 -58t-32 -47t-47.5 -31.5t-58 -11.5t-58 11.5t-47 31.5t-31.5 47t-11.5 58t11.5 58t31.5 47t47 31.5t58 11.5t58 -11.5t47.5 -31.5t32 -47t11.5 -58zM308 401q0 43 -30 73.5t-74 30.5q-43 0 -73.5 -30.5t-30.5 -73.5t30.5 -73.5t73.5 -30.5
q44 0 74 30.5t30 73.5z" />
    <glyph glyph-name="macron" unicode="&#x2c9;" 
d="M353 401q0 -31 -11.5 -58t-32 -47t-47.5 -31.5t-58 -11.5t-58 11.5t-47 31.5t-31.5 47t-11.5 58t11.5 58t31.5 47t47 31.5t58 11.5t58 -11.5t47.5 -31.5t32 -47t11.5 -58zM308 401q0 43 -30 73.5t-74 30.5q-43 0 -73.5 -30.5t-30.5 -73.5t30.5 -73.5t73.5 -30.5
q44 0 74 30.5t30 73.5z" />
    <glyph glyph-name="breve" unicode="&#x2d8;" 
d="M353 401q0 -31 -11.5 -58t-32 -47t-47.5 -31.5t-58 -11.5t-58 11.5t-47 31.5t-31.5 47t-11.5 58t11.5 58t31.5 47t47 31.5t58 11.5t58 -11.5t47.5 -31.5t32 -47t11.5 -58zM308 401q0 43 -30 73.5t-74 30.5q-43 0 -73.5 -30.5t-30.5 -73.5t30.5 -73.5t73.5 -30.5
q44 0 74 30.5t30 73.5z" />
    <glyph glyph-name="dotaccent" unicode="&#x2d9;" 
d="M353 401q0 -31 -11.5 -58t-32 -47t-47.5 -31.5t-58 -11.5t-58 11.5t-47 31.5t-31.5 47t-11.5 58t11.5 58t31.5 47t47 31.5t58 11.5t58 -11.5t47.5 -31.5t32 -47t11.5 -58zM308 401q0 43 -30 73.5t-74 30.5q-43 0 -73.5 -30.5t-30.5 -73.5t30.5 -73.5t73.5 -30.5
q44 0 74 30.5t30 73.5z" />
    <glyph glyph-name="ring" unicode="&#x2da;" horiz-adv-x="243" 
d="M223 659q-1 -43 -26 -73t-69 -32q-43 -2 -73 23t-34 68q-5 50 25.5 82.5t75.5 33.5q21 1 39.5 -7t32.5 -22.5t21.5 -33t7.5 -39.5zM174 657q0 20 -15.5 37.5t-35.5 17.5q-20 -1 -35.5 -20t-13.5 -43q2 -23 17 -35t35 -12t34 17t14 38z" />
    <glyph glyph-name="ogonek" unicode="&#x2db;" 
d="M353 401q0 -31 -11.5 -58t-32 -47t-47.5 -31.5t-58 -11.5t-58 11.5t-47 31.5t-31.5 47t-11.5 58t11.5 58t31.5 47t47 31.5t58 11.5t58 -11.5t47.5 -31.5t32 -47t11.5 -58zM308 401q0 43 -30 73.5t-74 30.5q-43 0 -73.5 -30.5t-30.5 -73.5t30.5 -73.5t73.5 -30.5
q44 0 74 30.5t30 73.5z" />
    <glyph glyph-name="tilde" unicode="&#x2dc;" 
d="M353 401q0 -31 -11.5 -58t-32 -47t-47.5 -31.5t-58 -11.5t-58 11.5t-47 31.5t-31.5 47t-11.5 58t11.5 58t31.5 47t47 31.5t58 11.5t58 -11.5t47.5 -31.5t32 -47t11.5 -58zM308 401q0 43 -30 73.5t-74 30.5q-43 0 -73.5 -30.5t-30.5 -73.5t30.5 -73.5t73.5 -30.5
q44 0 74 30.5t30 73.5z" />
    <glyph glyph-name="hungarumlaut" unicode="&#x2dd;" 
d="M353 401q0 -31 -11.5 -58t-32 -47t-47.5 -31.5t-58 -11.5t-58 11.5t-47 31.5t-31.5 47t-11.5 58t11.5 58t31.5 47t47 31.5t58 11.5t58 -11.5t47.5 -31.5t32 -47t11.5 -58zM308 401q0 43 -30 73.5t-74 30.5q-43 0 -73.5 -30.5t-30.5 -73.5t30.5 -73.5t73.5 -30.5
q44 0 74 30.5t30 73.5z" />
    <glyph glyph-name="pi" unicode="&#x3c0;" 
d="M353 401q0 -31 -11.5 -58t-32 -47t-47.5 -31.5t-58 -11.5t-58 11.5t-47 31.5t-31.5 47t-11.5 58t11.5 58t31.5 47t47 31.5t58 11.5t58 -11.5t47.5 -31.5t32 -47t11.5 -58zM308 401q0 43 -30 73.5t-74 30.5q-43 0 -73.5 -30.5t-30.5 -73.5t30.5 -73.5t73.5 -30.5
q44 0 74 30.5t30 73.5z" />
    <glyph glyph-name="endash" unicode="&#x2013;" horiz-adv-x="384" 
d="M364 207l-342 4l-2 89l340 4z" />
    <glyph glyph-name="emdash" unicode="&#x2014;" horiz-adv-x="454" 
d="M434 304v-86l-408 -7l-6 93h414z" />
    <glyph glyph-name="quoteleft" unicode="&#x2018;" horiz-adv-x="156" 
d="M136 590l-2 -98l-111 -1l-3 98l46 71l43 -4l-19 -64z" />
    <glyph glyph-name="quoteright" unicode="&#x2019;" horiz-adv-x="156" 
d="M136 561l-46 -71l-43 4l19 64l-46 2l2 98l111 1z" />
    <glyph glyph-name="quotesinglbase" unicode="&#x201a;" horiz-adv-x="156" 
d="M136 4l-46 -72l-43 5l19 63l-46 2l2 98l111 2z" />
    <glyph glyph-name="quotedblleft" unicode="&#x201c;" horiz-adv-x="293" 
d="M273 579l-2 -98l-111 -1l-3 98l47 75l44 -4l-21 -67zM134 581l-3 -97l-104 -1l-7 99l46 71l43 -4l-19 -64z" />
    <glyph glyph-name="quotedblright" unicode="&#x201d;" horiz-adv-x="293" 
d="M273 554l-46 -72l-43 5l19 64l-44 4l3 97l104 1zM136 558l-47 -76l-43 5l20 67l-46 2l2 99l111 1z" />
    <glyph glyph-name="quotedblbase" unicode="&#x201e;" horiz-adv-x="293" 
d="M273 4l-46 -72l-43 5l19 63l-44 5l3 97l104 1zM136 7l-47 -75l-43 5l20 67l-46 2l2 98l111 1z" />
    <glyph glyph-name="dagger" unicode="&#x2020;" horiz-adv-x="275" 
d="M255 653l-8 -72l-64 -1l-6 -147l-76 -4l-6 149l-65 -1l-10 76h71l-3 87l102 -2l-3 -85h68z" />
    <glyph glyph-name="daggerdbl" unicode="&#x2021;" 
d="M353 401q0 -31 -11.5 -58t-32 -47t-47.5 -31.5t-58 -11.5t-58 11.5t-47 31.5t-31.5 47t-11.5 58t11.5 58t31.5 47t47 31.5t58 11.5t58 -11.5t47.5 -31.5t32 -47t11.5 -58zM308 401q0 43 -30 73.5t-74 30.5q-43 0 -73.5 -30.5t-30.5 -73.5t30.5 -73.5t73.5 -30.5
q44 0 74 30.5t30 73.5z" />
    <glyph glyph-name="bullet" unicode="&#x2022;" horiz-adv-x="172" 
d="M151 335q3 -25 -15.5 -44t-48.5 -21q-26 -1 -46 17.5t-21 44.5q-1 27 17.5 46.5t49.5 20.5t46.5 -18.5t17.5 -45.5z" />
    <glyph glyph-name="ellipsis" unicode="&#x2026;" horiz-adv-x="572" 
d="M552 -20l-102 2l2 96l98 1zM338 -20l-102 2l2 96l98 1zM122 -20l-102 2l2 96l98 1z" />
    <glyph glyph-name="perthousand" unicode="&#x2030;" horiz-adv-x="763" 
d="M1447 -175q1 -31 -18 -62.5t-57 -56.5t-94.5 -40.5t-130.5 -15.5q-120 0 -207.5 17t-149 55.5t-101 99.5t-62.5 149q-22 82 -43.5 138.5t-47.5 91.5t-59 51t-78 17l2 -211h110l1 -83l-337 2l-2 81h117l-7 525h-114q-28 0 -44.5 -16t-17.5 -36q0 -21 12 -31.5t27 -14
t27.5 -1.5t14.5 7q2 6 -0.5 13.5t-25.5 8.5l25 54q49 -1 66 -20.5t19 -44.5q2 -28 -25.5 -57t-84.5 -28q-60 2 -100 30t-42 89q-1 34 12 58.5t35 39.5t50 22t56 7l295 1q64 0 109 -16t73.5 -41.5t41.5 -56.5t13 -61q0 -29 -7.5 -60t-26 -57t-49 -44t-75.5 -20
q57 -10 90.5 -50t54 -92t31.5 -107t22 -94q27 -94 78 -142t109.5 -67.5t116.5 -20.5t100 -1t77.5 8t60.5 21t39 28.5t14 31.5q0 18 -15 32t-40.5 24.5t-59.5 16t-72 5.5q-76 0 -118.5 -15.5t-59.5 -33.5l-129 4q11 19 36 39.5t64 38t91 28.5t118 11t119.5 -11.5t91.5 -31
t59 -47t22 -58.5zM598 470q1 59 -43 84.5t-155 24.5l1 -218q36 0 71 4t62.5 15.5t45 33t18.5 56.5z" />
    <glyph glyph-name="guilsinglleft" unicode="&#x2039;" 
d="M353 401q0 -31 -11.5 -58t-32 -47t-47.5 -31.5t-58 -11.5t-58 11.5t-47 31.5t-31.5 47t-11.5 58t11.5 58t31.5 47t47 31.5t58 11.5t58 -11.5t47.5 -31.5t32 -47t11.5 -58zM308 401q0 43 -30 73.5t-74 30.5q-43 0 -73.5 -30.5t-30.5 -73.5t30.5 -73.5t73.5 -30.5
q44 0 74 30.5t30 73.5z" />
    <glyph glyph-name="guilsinglright" unicode="&#x203a;" 
d="M353 401q0 -31 -11.5 -58t-32 -47t-47.5 -31.5t-58 -11.5t-58 11.5t-47 31.5t-31.5 47t-11.5 58t11.5 58t31.5 47t47 31.5t58 11.5t58 -11.5t47.5 -31.5t32 -47t11.5 -58zM308 401q0 43 -30 73.5t-74 30.5q-43 0 -73.5 -30.5t-30.5 -73.5t30.5 -73.5t73.5 -30.5
q44 0 74 30.5t30 73.5z" />
    <glyph glyph-name="trademark" unicode="&#x2122;" horiz-adv-x="339" 
d="M319 477l-73 -1v28l23 1l-1 106l-41 -98l-25 -1l-29 54l1 -60h15v-26l-70 1v27h23v96h-18v27h47l42 -72l44 110h57l1 -26h-15l1 -138h18v-28zM227 648h-119l-2 -102h22v-26l-76 -1v29h22v99h-28l-1 -16h-25v47l207 1v-31z" />
    <glyph glyph-name="partialdiff" unicode="&#x2202;" 
d="M353 401q0 -31 -11.5 -58t-32 -47t-47.5 -31.5t-58 -11.5t-58 11.5t-47 31.5t-31.5 47t-11.5 58t11.5 58t31.5 47t47 31.5t58 11.5t58 -11.5t47.5 -31.5t32 -47t11.5 -58zM308 401q0 43 -30 73.5t-74 30.5q-43 0 -73.5 -30.5t-30.5 -73.5t30.5 -73.5t73.5 -30.5
q44 0 74 30.5t30 73.5z" />
    <glyph glyph-name="Delta" unicode="&#x2206;" 
d="M353 401q0 -31 -11.5 -58t-32 -47t-47.5 -31.5t-58 -11.5t-58 11.5t-47 31.5t-31.5 47t-11.5 58t11.5 58t31.5 47t47 31.5t58 11.5t58 -11.5t47.5 -31.5t32 -47t11.5 -58zM308 401q0 43 -30 73.5t-74 30.5q-43 0 -73.5 -30.5t-30.5 -73.5t30.5 -73.5t73.5 -30.5
q44 0 74 30.5t30 73.5z" />
    <glyph glyph-name="product" unicode="&#x220f;" 
d="M353 401q0 -31 -11.5 -58t-32 -47t-47.5 -31.5t-58 -11.5t-58 11.5t-47 31.5t-31.5 47t-11.5 58t11.5 58t31.5 47t47 31.5t58 11.5t58 -11.5t47.5 -31.5t32 -47t11.5 -58zM308 401q0 43 -30 73.5t-74 30.5q-43 0 -73.5 -30.5t-30.5 -73.5t30.5 -73.5t73.5 -30.5
q44 0 74 30.5t30 73.5z" />
    <glyph glyph-name="minus" unicode="&#x2212;" 
d="M353 401q0 -31 -11.5 -58t-32 -47t-47.5 -31.5t-58 -11.5t-58 11.5t-47 31.5t-31.5 47t-11.5 58t11.5 58t31.5 47t47 31.5t58 11.5t58 -11.5t47.5 -31.5t32 -47t11.5 -58zM308 401q0 43 -30 73.5t-74 30.5q-43 0 -73.5 -30.5t-30.5 -73.5t30.5 -73.5t73.5 -30.5
q44 0 74 30.5t30 73.5z" />
    <glyph glyph-name="fraction" unicode="&#x2215;" 
d="M353 401q0 -31 -11.5 -58t-32 -47t-47.5 -31.5t-58 -11.5t-58 11.5t-47 31.5t-31.5 47t-11.5 58t11.5 58t31.5 47t47 31.5t58 11.5t58 -11.5t47.5 -31.5t32 -47t11.5 -58zM308 401q0 43 -30 73.5t-74 30.5q-43 0 -73.5 -30.5t-30.5 -73.5t30.5 -73.5t73.5 -30.5
q44 0 74 30.5t30 73.5z" />
    <glyph glyph-name="periodcentered" unicode="&#x2219;" 
d="M353 401q0 -31 -11.5 -58t-32 -47t-47.5 -31.5t-58 -11.5t-58 11.5t-47 31.5t-31.5 47t-11.5 58t11.5 58t31.5 47t47 31.5t58 11.5t58 -11.5t47.5 -31.5t32 -47t11.5 -58zM308 401q0 43 -30 73.5t-74 30.5q-43 0 -73.5 -30.5t-30.5 -73.5t30.5 -73.5t73.5 -30.5
q44 0 74 30.5t30 73.5z" />
    <glyph glyph-name="radical" unicode="&#x221a;" 
d="M353 401q0 -31 -11.5 -58t-32 -47t-47.5 -31.5t-58 -11.5t-58 11.5t-47 31.5t-31.5 47t-11.5 58t11.5 58t31.5 47t47 31.5t58 11.5t58 -11.5t47.5 -31.5t32 -47t11.5 -58zM308 401q0 43 -30 73.5t-74 30.5q-43 0 -73.5 -30.5t-30.5 -73.5t30.5 -73.5t73.5 -30.5
q44 0 74 30.5t30 73.5z" />
    <glyph glyph-name="infinity" unicode="&#x221e;" 
d="M353 401q0 -31 -11.5 -58t-32 -47t-47.5 -31.5t-58 -11.5t-58 11.5t-47 31.5t-31.5 47t-11.5 58t11.5 58t31.5 47t47 31.5t58 11.5t58 -11.5t47.5 -31.5t32 -47t11.5 -58zM308 401q0 43 -30 73.5t-74 30.5q-43 0 -73.5 -30.5t-30.5 -73.5t30.5 -73.5t73.5 -30.5
q44 0 74 30.5t30 73.5z" />
    <glyph glyph-name="integral" unicode="&#x222b;" 
d="M353 401q0 -31 -11.5 -58t-32 -47t-47.5 -31.5t-58 -11.5t-58 11.5t-47 31.5t-31.5 47t-11.5 58t11.5 58t31.5 47t47 31.5t58 11.5t58 -11.5t47.5 -31.5t32 -47t11.5 -58zM308 401q0 43 -30 73.5t-74 30.5q-43 0 -73.5 -30.5t-30.5 -73.5t30.5 -73.5t73.5 -30.5
q44 0 74 30.5t30 73.5z" />
    <glyph glyph-name="approxequal" unicode="&#x2248;" 
d="M353 401q0 -31 -11.5 -58t-32 -47t-47.5 -31.5t-58 -11.5t-58 11.5t-47 31.5t-31.5 47t-11.5 58t11.5 58t31.5 47t47 31.5t58 11.5t58 -11.5t47.5 -31.5t32 -47t11.5 -58zM308 401q0 43 -30 73.5t-74 30.5q-43 0 -73.5 -30.5t-30.5 -73.5t30.5 -73.5t73.5 -30.5
q44 0 74 30.5t30 73.5z" />
    <glyph glyph-name="notequal" unicode="&#x2260;" 
d="M353 401q0 -31 -11.5 -58t-32 -47t-47.5 -31.5t-58 -11.5t-58 11.5t-47 31.5t-31.5 47t-11.5 58t11.5 58t31.5 47t47 31.5t58 11.5t58 -11.5t47.5 -31.5t32 -47t11.5 -58zM308 401q0 43 -30 73.5t-74 30.5q-43 0 -73.5 -30.5t-30.5 -73.5t30.5 -73.5t73.5 -30.5
q44 0 74 30.5t30 73.5z" />
    <glyph glyph-name="lessequal" unicode="&#x2264;" 
d="M353 401q0 -31 -11.5 -58t-32 -47t-47.5 -31.5t-58 -11.5t-58 11.5t-47 31.5t-31.5 47t-11.5 58t11.5 58t31.5 47t47 31.5t58 11.5t58 -11.5t47.5 -31.5t32 -47t11.5 -58zM308 401q0 43 -30 73.5t-74 30.5q-43 0 -73.5 -30.5t-30.5 -73.5t30.5 -73.5t73.5 -30.5
q44 0 74 30.5t30 73.5z" />
    <glyph glyph-name="greaterequal" unicode="&#x2265;" 
d="M353 401q0 -31 -11.5 -58t-32 -47t-47.5 -31.5t-58 -11.5t-58 11.5t-47 31.5t-31.5 47t-11.5 58t11.5 58t31.5 47t47 31.5t58 11.5t58 -11.5t47.5 -31.5t32 -47t11.5 -58zM308 401q0 43 -30 73.5t-74 30.5q-43 0 -73.5 -30.5t-30.5 -73.5t30.5 -73.5t73.5 -30.5
q44 0 74 30.5t30 73.5z" />
    <glyph glyph-name="lozenge" unicode="&#x25ca;" 
d="M353 401q0 -31 -11.5 -58t-32 -47t-47.5 -31.5t-58 -11.5t-58 11.5t-47 31.5t-31.5 47t-11.5 58t11.5 58t31.5 47t47 31.5t58 11.5t58 -11.5t47.5 -31.5t32 -47t11.5 -58zM308 401q0 43 -30 73.5t-74 30.5q-43 0 -73.5 -30.5t-30.5 -73.5t30.5 -73.5t73.5 -30.5
q44 0 74 30.5t30 73.5z" />
    <glyph glyph-name="apple" unicode="&#xf000;" 
d="M353 401q0 -31 -11.5 -58t-32 -47t-47.5 -31.5t-58 -11.5t-58 11.5t-47 31.5t-31.5 47t-11.5 58t11.5 58t31.5 47t47 31.5t58 11.5t58 -11.5t47.5 -31.5t32 -47t11.5 -58zM308 401q0 43 -30 73.5t-74 30.5q-43 0 -73.5 -30.5t-30.5 -73.5t30.5 -73.5t73.5 -30.5
q44 0 74 30.5t30 73.5z" />
    <glyph glyph-name="fi" unicode="&#xf001;" 
d="M353 401q0 -31 -11.5 -58t-32 -47t-47.5 -31.5t-58 -11.5t-58 11.5t-47 31.5t-31.5 47t-11.5 58t11.5 58t31.5 47t47 31.5t58 11.5t58 -11.5t47.5 -31.5t32 -47t11.5 -58zM308 401q0 43 -30 73.5t-74 30.5q-43 0 -73.5 -30.5t-30.5 -73.5t30.5 -73.5t73.5 -30.5
q44 0 74 30.5t30 73.5z" />
    <glyph glyph-name="fl" unicode="&#xf002;" 
d="M353 401q0 -31 -11.5 -58t-32 -47t-47.5 -31.5t-58 -11.5t-58 11.5t-47 31.5t-31.5 47t-11.5 58t11.5 58t31.5 47t47 31.5t58 11.5t58 -11.5t47.5 -31.5t32 -47t11.5 -58zM308 401q0 43 -30 73.5t-74 30.5q-43 0 -73.5 -30.5t-30.5 -73.5t30.5 -73.5t73.5 -30.5
q44 0 74 30.5t30 73.5z" />
    <glyph glyph-name="Omega" unicode="&#xf0bd;" 
d="M353 401q0 -31 -11.5 -58t-32 -47t-47.5 -31.5t-58 -11.5t-58 11.5t-47 31.5t-31.5 47t-11.5 58t11.5 58t31.5 47t47 31.5t58 11.5t58 -11.5t47.5 -31.5t32 -47t11.5 -58zM308 401q0 43 -30 73.5t-74 30.5q-43 0 -73.5 -30.5t-30.5 -73.5t30.5 -73.5t73.5 -30.5
q44 0 74 30.5t30 73.5z" />
  </font>
</defs>
</svg>
