<svg xmlns="http://www.w3.org/2000/svg" xmlns:xlink="http://www.w3.org/1999/xlink" width="46.022" height="43.021" viewBox="0 0 46.022 43.021">
  <defs>
    <filter id="Ellipse_6" x="19.588" y="17.566" width="26.434" height="25.455" filterUnits="userSpaceOnUse">
      <feOffset input="SourceAlpha"/>
      <feGaussianBlur stdDeviation="1.5" result="blur"/>
      <feFlood flood-opacity="0.161"/>
      <feComposite operator="in" in2="blur"/>
      <feComposite in="SourceGraphic"/>
    </filter>
  </defs>
  <g id="Groupe_170" data-name="Groupe 170" transform="translate(-152.149 -671.486)">
    <g id="Groupe_94" data-name="Groupe 94" transform="translate(175.7 686.394)">
      <g id="Groupe_32" data-name="Groupe 32" transform="translate(0 0)">
        <g id="Groupe_30" data-name="Groupe 30" transform="translate(8.941)">
          <g id="Groupe_28" data-name="Groupe 28" transform="translate(3.257 2.623)">
            <path id="Tracé_22" data-name="Tracé 22" d="M0,3.508H.556A12.909,12.909,0,0,0,.71,1.7,10.533,10.533,0,0,0,.556,0H0A10.8,10.8,0,0,1,.153,1.713,12.611,12.611,0,0,1,0,3.508Z" transform="matrix(-0.788, -0.616, 0.616, -0.788, 1.565, 10.482)" fill="#439046"/>
            <g id="Groupe_24" data-name="Groupe 24" transform="matrix(0.819, 0.574, -0.574, 0.819, 5.127, 0)">
              <path id="Tracé_18" data-name="Tracé 18" d="M3.013,0c1.7,0,4.708,2.575,4.708,2.575S4.713,5.162,3.013,5.162A2.925,2.925,0,0,1,0,2.575,2.916,2.916,0,0,1,3.013,0Z" transform="matrix(0.309, -0.951, 0.951, 0.309, 0, 7.343)" fill="#439046"/>
            </g>
          </g>
          <g id="Groupe_26" data-name="Groupe 26" transform="translate(0 0.021)">
            <path id="Tracé_20" data-name="Tracé 20" d="M0,0H.49A14.607,14.607,0,0,1,.625,1.808a11.911,11.911,0,0,1-.135,1.7H0A12.212,12.212,0,0,0,.135,1.8,14.269,14.269,0,0,0,0,0Z" transform="matrix(0.891, 0.454, -0.454, 0.891, 2.536, 7.543)" fill="#439046"/>
            <g id="Groupe_25" data-name="Groupe 25" transform="matrix(0.998, -0.07, 0.07, 0.998, 0, 0.509)">
              <path id="Tracé_18-2" data-name="Tracé 18" d="M3.013,0c1.7,0,4.708,2.575,4.708,2.575S4.713,5.162,3.013,5.162A2.925,2.925,0,0,1,0,2.575,2.916,2.916,0,0,1,3.013,0Z" transform="matrix(0.309, -0.951, 0.951, 0.309, 0, 7.343)" fill="#439046"/>
            </g>
          </g>
          <g id="Groupe_29" data-name="Groupe 29" transform="translate(1.623)">
            <rect id="Rectangle_31" data-name="Rectangle 31" width="0.54" height="3.508" transform="matrix(0.799, 0.602, -0.602, 0.799, 2.961, 8.571)" fill="#56ad63"/>
            <g id="Groupe_23" data-name="Groupe 23" transform="matrix(0.819, 0.574, -0.574, 0.819, 5.532, 0)">
              <path id="Tracé_18-3" data-name="Tracé 18" d="M3.764,0C5.888,0,9.645,3.217,9.645,3.217S5.888,6.448,3.764,6.448A3.654,3.654,0,0,1,0,3.217,3.643,3.643,0,0,1,3.764,0Z" transform="translate(0 9.645) rotate(-90)" fill="#56ad63"/>
              <path id="Tracé_19" data-name="Tracé 19" d="M2.73,0H4.772c.845-.009.738.285.745.284s.065.165-.576.671A3.461,3.461,0,0,1,2.53,2.03,3.251,3.251,0,0,1,.227.85C-.114.414.027.226.038.207S.067,0,.685,0Z" transform="translate(3.184 8.174) rotate(-90)" fill="#4ea159"/>
            </g>
          </g>
        </g>
        <g id="Groupe_27" data-name="Groupe 27" transform="translate(1.898 6.716) rotate(7)">
          <g transform="matrix(0.99, -0.12, 0.12, 0.99, -27.89, -18.36)" filter="url(#Ellipse_6)">
            <ellipse id="Ellipse_6-2" data-name="Ellipse 6" cx="6.881" cy="5.869" rx="6.881" ry="5.869" transform="translate(29.05 22.07) rotate(25)" fill="#f2f7e2"/>
          </g>
          <path id="Tracé_17" data-name="Tracé 17" d="M3.392,0C4.815,0,6.243,3.7,6.243,3.7L0,3.661S1.968,0,3.392,0Z" transform="translate(7.958 15.57) rotate(-160)" fill="#f2f7e2"/>
        </g>
      </g>
      <circle id="Ellipse_10" data-name="Ellipse 10" cx="0.5" cy="0.5" r="0.5" transform="translate(10.3 16.606)" fill="#c8bca1"/>
      <circle id="Ellipse_11" data-name="Ellipse 11" transform="translate(11.3 17.606)" fill="#c8bca1"/>
      <circle id="Ellipse_12" data-name="Ellipse 12" cx="1" cy="1" r="1" transform="translate(11.3 14.606)" fill="#c8bca1"/>
      <circle id="Ellipse_31" data-name="Ellipse 31" cx="0.5" cy="0.5" r="0.5" transform="translate(10.3 13.606)" fill="#c8bca1"/>
    </g>
    <line id="Ligne_5" data-name="Ligne 5" x2="25.935" transform="translate(178.994 681.536) rotate(121)" fill="none" stroke="rgba(0,0,0,0.39)" stroke-linecap="round" stroke-width="2"/>
    <g id="Groupe_163" data-name="Groupe 163" transform="translate(152.15 671.486)">
      <path id="Tracé_35" data-name="Tracé 35" d="M5130.856,1158.9a44.624,44.624,0,0,0,6.408,0c.7-.171,2.89-.6,3.725-2.314a9.552,9.552,0,0,0,.432-5.691,8.983,8.983,0,0,0-3.1-3.622v-.357a2.4,2.4,0,0,0,2.445-1.2c1.145-1.563-1.1-2.814-1.1-2.814a1.993,1.993,0,0,0-2.615-2c-2.591.6-2.349,4.817-2.349,4.817a1.392,1.392,0,0,0-.371.3,1.312,1.312,0,0,0-.209.419s-3.728.59-5.655,3.32S5126.438,1158.553,5130.856,1158.9Z" transform="translate(-5127.204 -1140.81)" fill="#cea860"/>
      <path id="Tracé_37" data-name="Tracé 37" d="M5154.094,1215.346a13.392,13.392,0,0,0-1.885,1.542,10.174,10.174,0,0,0-2.013-.175,14.062,14.062,0,0,0,.474,2.176,15.729,15.729,0,0,0-.772,2.38,10.425,10.425,0,0,0,2.178-.132,14.467,14.467,0,0,0,2.141,1.591,17.642,17.642,0,0,0,.265-2.629,13.244,13.244,0,0,0,2.24-1.416,10.786,10.786,0,0,0-2.088-1.2A9.71,9.71,0,0,0,5154.094,1215.346Z" transform="translate(-5147.095 -1207.124)" fill="#673b29"/>
      <path id="Tracé_40" data-name="Tracé 40" d="M5191.757,1190.478l-.81.179s-.148.369.554.711a5.178,5.178,0,0,0,1.111.4,6.03,6.03,0,0,1,1.07.229c.147.152,1.548,3.719,2.221,3.829a.955.955,0,0,0,1.023-.17c.225-.289-.17-.888-.229-1.044-.145-.37-1.42-2.205-1.42-2.205a13.186,13.186,0,0,0,2.084,2.035c.4.087.577-.761.577-.761a10.172,10.172,0,0,0-1.241-1.274,11.746,11.746,0,0,0-1.676-1.13.368.368,0,0,0-.069-.323c-.123-.17-.156-.274-.438-.274a1.37,1.37,0,0,0-.618.229,8.51,8.51,0,0,1-1.729-.523C5191.595,1190.084,5191.757,1190.478,5191.757,1190.478Z" transform="translate(-5184.215 -1184.996)" fill="rgba(39,14,10,0.37)"/>
      <path id="Tracé_36" data-name="Tracé 36" d="M5397.638,1156.52a10.2,10.2,0,0,0-1.309,1.848,10.522,10.522,0,0,0,1.886-.835c.438-.336-.022-.328-.137-.508S5398.075,1156.184,5397.638,1156.52Z" transform="translate(-5385.54 -1154.944)" fill="#b98b59"/>
      <path id="Tracé_39" data-name="Tracé 39" d="M5663.144,1255.493c.21,0-.055,2.22-1.167,3.158s-3.221,1.538-3.288,1.3c-.032-.118,1.169-.5,2.212-1.3C5661.924,1257.865,5662.941,1255.5,5663.144,1255.493Z" transform="translate(-5649.166 -1242.357)" fill="#ad8d51"/>
      <path id="Tracé_38" data-name="Tracé 38" d="M5190.724,1185.152l-.78.88a1.3,1.3,0,0,0,.78.858,7.56,7.56,0,0,0,2.023.464s1.631,3.705,2.172,3.85c1.229.2.972-.965.9-1.157-.145-.37-1.421-2.205-1.421-2.205a17.212,17.212,0,0,0,2.085,2.035c.3.067.577-.762.577-.762a10.188,10.188,0,0,0-1.241-1.273,11.716,11.716,0,0,0-1.675-1.131,1.67,1.67,0,0,0-.2-.368c-.124-.17-.031-.229-.313-.229a1.37,1.37,0,0,0-.618.229,8.518,8.518,0,0,1-1.729-.523C5190.713,1185.523,5190.724,1185.152,5190.724,1185.152Z" transform="translate(-5183.114 -1180.543)" fill="#c44631"/>
      <path id="Tracé_50" data-name="Tracé 50" d="M5395.1,1199.892s.245.064.323-.086a.959.959,0,0,0,.02-.462,18.383,18.383,0,0,1,2.921,2.4c.05.077-.066.316-.169.511s-.282.337-.356.315A20.376,20.376,0,0,1,5395.1,1199.892Z" transform="translate(-5384.442 -1193.19)" fill="#c44631"/>
      <path id="Tracé_42" data-name="Tracé 42" d="M5215.672,1196.064c-.041-.114.145-.991.262-1.009a3.8,3.8,0,0,1,.646.624c-.006.239.57.83.747.874a1.622,1.622,0,0,1,.257.384c.014.1-1.278-1.309-1.567-1.309S5215.715,1196.177,5215.672,1196.064Z" transform="translate(-5206.038 -1189.259)" fill="rgba(78,61,37,0.36)"/>
      <path id="Tracé_48" data-name="Tracé 48" d="M5218.049,1194.032l-.016.378s.642.588.925.578.21-.578.21-.578-.073-.522-.356-.6S5218.049,1194.032,5218.049,1194.032Z" transform="translate(-5208.146 -1188.245)" fill="#b5412d"/>
      <path id="Tracé_51" data-name="Tracé 51" d="M5218.039,1193.879l-.006.134s.229.209.328.205.075-.205.075-.205-.027-.185-.127-.214S5218.039,1193.879,5218.039,1193.879Z" transform="translate(-5207.626 -1188.136)" fill="#c37163"/>
      <path id="Tracé_52" data-name="Tracé 52" d="M.021.18C.138.241.252.192.405.3s.13.3.23.376S.784.459.746.29.663.031.482,0-.1.12.021.18Z" transform="translate(12.702 9.757) rotate(111)" fill="rgba(100,31,19,0.53)"/>
    </g>
  </g>
</svg>
