<svg xmlns="http://www.w3.org/2000/svg" xmlns:xlink="http://www.w3.org/1999/xlink" width="35.638" height="33.388" viewBox="0 0 35.638 33.388">
  <defs>
    <filter id="Ellipse_6" x="13.564" y="12.048" width="22.074" height="21.34" filterUnits="userSpaceOnUse">
      <feOffset input="SourceAlpha"/>
      <feGaussianBlur stdDeviation="1.5" result="blur"/>
      <feFlood flood-opacity="0.161"/>
      <feComposite operator="in" in2="blur"/>
      <feComposite in="SourceGraphic"/>
    </filter>
  </defs>
  <g id="Groupe_164" data-name="Groupe 164" transform="translate(-152.15 -671.486)">
    <g id="Groupe_94" data-name="Groupe 94" transform="translate(169.811 682.666)">
      <g id="Groupe_32" data-name="Groupe 32" transform="translate(0 0)">
        <g id="Groupe_30" data-name="Groupe 30" transform="translate(6.705)">
          <g id="Groupe_28" data-name="Groupe 28" transform="translate(2.442 1.967)">
            <path id="Tracé_22" data-name="Tracé 22" d="M0,2.631H.417A9.681,9.681,0,0,0,.532,1.275,7.9,7.9,0,0,0,.417,0H0A8.1,8.1,0,0,1,.115,1.284,9.457,9.457,0,0,1,0,2.631Z" transform="matrix(-0.788, -0.616, 0.616, -0.788, 1.174, 7.861)" fill="#439046"/>
            <g id="Groupe_24" data-name="Groupe 24" transform="matrix(0.819, 0.574, -0.574, 0.819, 3.845, 0)">
              <path id="Tracé_18" data-name="Tracé 18" d="M2.26,0C3.534,0,5.79,1.931,5.79,1.931S3.534,3.871,2.26,3.871A2.194,2.194,0,0,1,0,1.931,2.187,2.187,0,0,1,2.26,0Z" transform="matrix(0.309, -0.951, 0.951, 0.309, 0, 5.507)" fill="#439046"/>
            </g>
          </g>
          <g id="Groupe_26" data-name="Groupe 26" transform="translate(0 0.016)">
            <path id="Tracé_20" data-name="Tracé 20" d="M0,0H.368a10.954,10.954,0,0,1,.1,1.356,8.932,8.932,0,0,1-.1,1.275H0A9.158,9.158,0,0,0,.1,1.346,10.7,10.7,0,0,0,0,0Z" transform="matrix(0.891, 0.454, -0.454, 0.891, 1.902, 5.656)" fill="#439046"/>
            <g id="Groupe_25" data-name="Groupe 25" transform="matrix(0.998, -0.07, 0.07, 0.998, 0, 0.382)">
              <path id="Tracé_18-2" data-name="Tracé 18" d="M2.26,0C3.534,0,5.79,1.931,5.79,1.931S3.534,3.871,2.26,3.871A2.194,2.194,0,0,1,0,1.931,2.187,2.187,0,0,1,2.26,0Z" transform="matrix(0.309, -0.951, 0.951, 0.309, 0, 5.507)" fill="#439046"/>
            </g>
          </g>
          <g id="Groupe_29" data-name="Groupe 29" transform="translate(1.217 0)">
            <rect id="Rectangle_31" data-name="Rectangle 31" width="0.405" height="2.631" transform="matrix(0.799, 0.602, -0.602, 0.799, 2.221, 6.428)" fill="#56ad63"/>
            <g id="Groupe_23" data-name="Groupe 23" transform="matrix(0.819, 0.574, -0.574, 0.819, 4.149, 0)">
              <path id="Tracé_18-3" data-name="Tracé 18" d="M2.823,0c1.593,0,4.41,2.412,4.41,2.412S4.415,4.836,2.823,4.836A2.74,2.74,0,0,1,0,2.412,2.732,2.732,0,0,1,2.823,0Z" transform="translate(0 7.233) rotate(-90)" fill="#56ad63"/>
              <path id="Tracé_19" data-name="Tracé 19" d="M2.047,0H3.579c.633-.007.554.214.559.213s.049.124-.432.5A2.6,2.6,0,0,1,1.9,1.522,2.438,2.438,0,0,1,.17.637C-.086.311.021.169.029.155S.05,0,.514,0Z" transform="translate(2.388 6.13) rotate(-90)" fill="#4ea159"/>
            </g>
          </g>
        </g>
        <g id="Groupe_27" data-name="Groupe 27" transform="translate(1.423 5.037) rotate(7)">
          <g transform="matrix(0.99, -0.12, 0.12, 0.99, -20.92, -13.77)" filter="url(#Ellipse_6)">
            <ellipse id="Ellipse_6-2" data-name="Ellipse 6" cx="5.16" cy="4.402" rx="5.16" ry="4.402" transform="translate(21.78 16.55) rotate(25)" fill="#f2f7e2"/>
          </g>
          <path id="Tracé_17" data-name="Tracé 17" d="M2.544,0C3.611,0,4.682,2.776,4.682,2.776L0,2.746S1.476,0,2.544,0Z" transform="translate(5.968 11.677) rotate(-160)" fill="#f2f7e2"/>
        </g>
      </g>
      <circle id="Ellipse_10" data-name="Ellipse 10" cx="0.5" cy="0.5" r="0.5" transform="translate(7.189 12.334)" fill="#c8bca1"/>
      <circle id="Ellipse_11" data-name="Ellipse 11" transform="translate(9.189 13.334)" fill="#c8bca1"/>
      <circle id="Ellipse_12" data-name="Ellipse 12" cx="0.5" cy="0.5" r="0.5" transform="translate(9.189 11.334)" fill="#c8bca1"/>
      <circle id="Ellipse_31" data-name="Ellipse 31" cx="0.5" cy="0.5" r="0.5" transform="translate(7.189 10.334)" fill="#c8bca1"/>
    </g>
    <line id="Ligne_5" data-name="Ligne 5" x2="19.449" transform="translate(172.281 679.023) rotate(121)" fill="none" stroke="#808c7d" stroke-linecap="round" stroke-width="2"/>
    <g id="Groupe_163" data-name="Groupe 163" transform="translate(-896.055 496.676)">
      <path id="Tracé_35" data-name="Tracé 35" d="M5129.944,1154.379a33.458,33.458,0,0,0,4.805,0c.527-.128,2.167-.446,2.793-1.735a7.17,7.17,0,0,0,.324-4.268,6.738,6.738,0,0,0-2.326-2.717v-.268a1.8,1.8,0,0,0,1.834-.9c.858-1.172-.823-2.11-.823-2.11a1.494,1.494,0,0,0-1.961-1.5c-1.942.446-1.761,3.613-1.761,3.613a1.042,1.042,0,0,0-.278.227.977.977,0,0,0-.156.314,7.1,7.1,0,0,0-4.241,2.49C5126.708,1149.567,5126.631,1154.116,5129.944,1154.379Z" transform="translate(-4079 -966)" fill="#cea860"/>
      <path id="Tracé_37" data-name="Tracé 37" d="M5153.043,1215.346a10.033,10.033,0,0,0-1.413,1.156,7.629,7.629,0,0,0-1.51-.131,10.572,10.572,0,0,0,.355,1.632,11.794,11.794,0,0,0-.579,1.785,7.823,7.823,0,0,0,1.633-.1,10.824,10.824,0,0,0,1.605,1.193,13.226,13.226,0,0,0,.2-1.972,9.955,9.955,0,0,0,1.68-1.062,8.1,8.1,0,0,0-1.566-.9A7.292,7.292,0,0,0,5153.043,1215.346Z" transform="translate(-4099.59 -1034.37)" fill="#673b29"/>
      <path id="Tracé_40" data-name="Tracé 40" d="M5191.551,1190.426l-.607.134s-.111.277.416.533a3.878,3.878,0,0,0,.833.3,4.516,4.516,0,0,1,.8.172c.111.114,1.161,2.789,1.666,2.871a.718.718,0,0,0,.768-.128c.168-.217-.127-.666-.172-.783-.108-.277-1.065-1.654-1.065-1.654a9.874,9.874,0,0,0,1.563,1.526c.3.066.433-.571.433-.571a7.622,7.622,0,0,0-.931-.955,8.833,8.833,0,0,0-1.256-.848.278.278,0,0,0-.052-.243c-.093-.127-.118-.206-.329-.206a1.029,1.029,0,0,0-.464.172,6.379,6.379,0,0,1-1.3-.392C5191.429,1190.131,5191.551,1190.426,5191.551,1190.426Z" transform="translate(-4137.69 -1011.505)" fill="rgba(39,14,10,0.37)"/>
      <path id="Tracé_36" data-name="Tracé 36" d="M5397.311,1156.5a7.649,7.649,0,0,0-.981,1.386,7.876,7.876,0,0,0,1.414-.626c.328-.252-.017-.246-.1-.381S5397.639,1156.245,5397.311,1156.5Z" transform="translate(-4340.033 -980.505)" fill="#b98b59"/>
      <path id="Tracé_39" data-name="Tracé 39" d="M5662.029,1255.493a2.973,2.973,0,0,1-.875,2.369,4.118,4.118,0,0,1-2.465.974c-.025-.089.876-.372,1.659-.974S5661.878,1255.5,5662.029,1255.493Z" transform="translate(-4603.343 -1070.832)" fill="#ad8d51"/>
      <path id="Tracé_38" data-name="Tracé 38" d="M5190.529,1185.152l-.585.66a.969.969,0,0,0,.585.644,5.671,5.671,0,0,0,1.518.348s1.223,2.779,1.628,2.887c.921.15.728-.723.672-.867-.108-.278-1.065-1.654-1.065-1.654a12.88,12.88,0,0,0,1.563,1.526c.229.05.433-.571.433-.571a7.614,7.614,0,0,0-.931-.955,8.813,8.813,0,0,0-1.256-.848,1.279,1.279,0,0,0-.147-.276c-.093-.128-.023-.172-.234-.172a1.029,1.029,0,0,0-.464.172,6.374,6.374,0,0,1-1.3-.392C5190.521,1185.43,5190.529,1185.152,5190.529,1185.152Z" transform="translate(-4136.618 -1006.885)" fill="#c44631"/>
      <path id="Tracé_50" data-name="Tracé 50" d="M5395.1,1199.755s.184.048.242-.065a.711.711,0,0,0,.015-.346,13.761,13.761,0,0,1,2.19,1.8c.038.058-.049.237-.126.384s-.212.253-.268.236A15.262,15.262,0,0,1,5395.1,1199.755Z" transform="translate(-4338.902 -1019.919)" fill="#c44631"/>
      <path id="Tracé_42" data-name="Tracé 42" d="M5215.67,1195.812c-.031-.085.108-.743.2-.757a2.824,2.824,0,0,1,.484.468c0,.179.428.622.561.656a1.2,1.2,0,0,1,.192.288c.011.078-.958-.981-1.175-.981S5215.7,1195.9,5215.67,1195.812Z" transform="translate(-4160.241 -1015.898)" fill="rgba(78,61,37,0.36)"/>
      <path id="Tracé_48" data-name="Tracé 48" d="M5218.045,1193.972l-.012.283s.481.441.694.433.157-.433.157-.433-.055-.391-.268-.451S5218.045,1193.972,5218.045,1193.972Z" transform="translate(-4162.414 -1014.822)" fill="#b5412d"/>
      <path id="Tracé_51" data-name="Tracé 51" d="M5218.037,1193.858l0,.1s.171.157.247.154.056-.154.056-.154-.02-.139-.095-.16S5218.037,1193.858,5218.037,1193.858Z" transform="translate(-4162.024 -1014.741)" fill="#c37163"/>
      <path id="Tracé_52" data-name="Tracé 52" d="M.016.135C.1.181.189.144.3.225S.4.451.476.507.588.344.559.218.5.023.362,0-.072.09.016.135Z" transform="translate(1057.73 182.127) rotate(111)" fill="rgba(100,31,19,0.53)"/>
    </g>
  </g>
</svg>
