<svg xmlns="http://www.w3.org/2000/svg" width="24.583" height="30.94" viewBox="0 0 24.583 30.94">
  <g id="Groupe_171" data-name="Groupe 171" transform="translate(0)">
    <path id="Tracé_35" data-name="Tracé 35" d="M5133.409,1171.55a75.8,75.8,0,0,0,10.887,0c1.193-.291,4.91-1.011,6.328-3.932,1.387-2.854,1.4-8.064.733-9.669a15.256,15.256,0,0,0-5.269-6.154v-.606s2.21.611,4.154-2.045-1.863-4.781-1.863-4.781-.044-4.415-4.443-3.4-3.99,8.184-3.99,8.184a2.365,2.365,0,0,0-.631.514,2.219,2.219,0,0,0-.354.711s-6.333,1-9.608,5.64S5125.9,1170.955,5133.409,1171.55Z" transform="translate(-5127.205 -1140.81)" fill="#cea860"/>
    <path id="Tracé_37" data-name="Tracé 37" d="M5157.032,1215.347c-.309-.072-3.2,2.619-3.2,2.619s-3.263-.512-3.419-.3a23.936,23.936,0,0,0,.8,3.7s-1.468,3.794-1.312,4.044,3.7-.224,3.7-.224,3.395,2.871,3.637,2.7.45-4.467.45-4.467,3.81-2.052,3.806-2.406-3.547-2.043-3.547-2.043S5157.342,1215.419,5157.032,1215.347Z" transform="translate(-5145.141 -1201.377)" fill="#673b29"/>
    <path id="Tracé_40" data-name="Tracé 40" d="M5192.332,1190.624l-1.375.3s-.252.627.941,1.208a8.8,8.8,0,0,0,1.888.675,10.261,10.261,0,0,1,1.819.389c.251.258,2.629,6.318,3.773,6.5a1.623,1.623,0,0,0,1.739-.289c.382-.491-.289-1.509-.39-1.774-.246-.628-2.412-3.746-2.412-3.746s2.868,3.308,3.541,3.457.98-1.293.98-1.293a17.276,17.276,0,0,0-2.109-2.164,19.953,19.953,0,0,0-2.847-1.921.626.626,0,0,0-.118-.55c-.209-.289-.266-.466-.746-.466a2.326,2.326,0,0,0-1.05.39,14.47,14.47,0,0,1-2.938-.889C5192.057,1189.954,5192.332,1190.624,5192.332,1190.624Z" transform="translate(-5179.519 -1181.309)" fill="rgba(39,14,10,0.37)"/>
    <path id="Tracé_36" data-name="Tracé 36" d="M5398.552,1156.586a17.327,17.327,0,0,0-2.223,3.139,17.878,17.878,0,0,0,3.2-1.419c.744-.57-.039-.557-.232-.863S5399.3,1156.015,5398.552,1156.586Z" transform="translate(-5377.998 -1153.908)" fill="#b98b59"/>
    <path id="Tracé_39" data-name="Tracé 39" d="M5666.258,1255.493c.357,0-.093,3.772-1.982,5.366s-5.472,2.612-5.586,2.205c-.055-.2,1.986-.843,3.758-2.205C5664.186,1259.522,5665.915,1255.5,5666.258,1255.493Z" transform="translate(-5642.51 -1233.176)" fill="#ad8d51"/>
    <path id="Tracé_38" data-name="Tracé 38" d="M5191.27,1185.152l-1.326,1.495a2.2,2.2,0,0,0,1.326,1.458,12.853,12.853,0,0,0,3.438.789s2.771,6.295,3.689,6.542c2.087.34,1.651-1.639,1.523-1.965-.246-.629-2.414-3.747-2.414-3.747s3.026,3.343,3.542,3.458.98-1.294.98-1.294a17.322,17.322,0,0,0-2.108-2.163,19.918,19.918,0,0,0-2.846-1.921,2.824,2.824,0,0,0-.332-.625c-.21-.289-.053-.39-.532-.39a2.327,2.327,0,0,0-1.05.39,14.475,14.475,0,0,1-2.938-.889C5191.251,1185.782,5191.27,1185.152,5191.27,1185.152Z" transform="translate(-5178.341 -1177.322)" fill="#c44631"/>
    <path id="Tracé_50" data-name="Tracé 50" d="M5395.1,1200.275s.417.109.549-.146a1.627,1.627,0,0,0,.034-.784s3.958,2.707,4.962,4.084c.084.131-.113.537-.288.869-.172.314-.479.573-.605.535C5398.381,1204.046,5395.1,1200.275,5395.1,1200.275Z" transform="translate(-5376.994 -1188.889)" fill="#c44631"/>
    <path id="Tracé_42" data-name="Tracé 42" d="M5215.677,1196.77c-.07-.193.245-1.684.444-1.715a6.446,6.446,0,0,1,1.1,1.06c-.01.406.969,1.409,1.269,1.485a2.745,2.745,0,0,1,.436.652c.023.176-2.171-2.224-2.663-2.224S5215.749,1196.962,5215.677,1196.77Z" transform="translate(-5199.309 -1185.209)" fill="rgba(78,61,37,0.36)"/>
    <path id="Tracé_48" data-name="Tracé 48" d="M5218.06,1194.2l-.026.642s1.09,1,1.571.981.356-.981.356-.981-.125-.887-.605-1.023S5218.06,1194.2,5218.06,1194.2Z" transform="translate(-5201.237 -1184.366)" fill="#b5412d"/>
    <path id="Tracé_51" data-name="Tracé 51" d="M5218.043,1193.938l-.01.228s.388.355.558.349.127-.349.127-.349-.046-.315-.216-.364S5218.043,1193.938,5218.043,1193.938Z" transform="translate(-5200.354 -1184.181)" fill="#c37163"/>
    <path id="Tracé_52" data-name="Tracé 52" d="M.036.307c.2.1.393.019.653.2s.221.511.391.639.252-.37.187-.656S1.127.053.819.006-.162.2.036.307Z" transform="translate(21.58 16.576) rotate(111)" fill="rgba(100,31,19,0.53)"/>
  </g>
</svg>
