<svg xmlns="http://www.w3.org/2000/svg" width="21.449" height="26.996" viewBox="0 0 21.449 26.996">
  <g id="Groupe_163" data-name="Groupe 163" transform="translate(-1048.205 -174.81)">
    <path id="Tracé_35" data-name="Tracé 35" d="M5132.619,1167.633a66.15,66.15,0,0,0,9.5,0c1.041-.254,4.284-.882,5.522-3.43,1.209-2.49,1.221-7.036.639-8.437a13.318,13.318,0,0,0-4.6-5.37v-.529s1.929.533,3.625-1.784-1.626-4.171-1.626-4.171-.038-3.852-3.878-2.97-3.48,7.141-3.48,7.141a2.07,2.07,0,0,0-.55.448,1.914,1.914,0,0,0-.309.621s-5.527.875-8.384,4.922S5126.07,1167.113,5132.619,1167.633Z" transform="translate(-4079 -966)" fill="#cea860"/>
    <path id="Tracé_37" data-name="Tracé 37" d="M5156.122,1215.347a19.834,19.834,0,0,0-2.793,2.285,15.093,15.093,0,0,0-2.986-.26,20.938,20.938,0,0,0,.7,3.226,23.3,23.3,0,0,0-1.145,3.529c.136.218,3.228-.2,3.228-.2s2.962,2.5,3.174,2.359a26.081,26.081,0,0,0,.393-3.9s3.323-1.791,3.321-2.1-3.1-1.782-3.1-1.782S5156.392,1215.409,5156.122,1215.347Z" transform="translate(-4097.542 -1028.347)" fill="#673b29"/>
    <path id="Tracé_40" data-name="Tracé 40" d="M5192.153,1190.578l-1.2.266s-.22.547.821,1.054a7.654,7.654,0,0,0,1.648.589,8.886,8.886,0,0,1,1.585.339c.219.225,2.295,5.513,3.293,5.676a1.419,1.419,0,0,0,1.518-.252c.332-.429-.251-1.317-.341-1.548-.213-.549-2.105-3.269-2.105-3.269s2.5,2.886,3.09,3.016.856-1.129.856-1.129a15.122,15.122,0,0,0-1.841-1.888,17.406,17.406,0,0,0-2.483-1.676.549.549,0,0,0-.1-.479c-.184-.252-.232-.406-.65-.406a2.032,2.032,0,0,0-.917.34,12.612,12.612,0,0,1-2.563-.776C5191.912,1189.994,5192.153,1190.578,5192.153,1190.578Z" transform="translate(-4132.768 -1007.641)" fill="rgba(39,14,10,0.37)"/>
    <path id="Tracé_36" data-name="Tracé 36" d="M5398.27,1156.565a15.148,15.148,0,0,0-1.941,2.74,15.6,15.6,0,0,0,2.8-1.238c.648-.5-.034-.486-.2-.753S5398.917,1156.068,5398.27,1156.565Z" transform="translate(-4332.129 -979.419)" fill="#b98b59"/>
    <path id="Tracé_39" data-name="Tracé 39" d="M5665.292,1255.493c.313,0-.08,3.292-1.729,4.682s-4.774,2.279-4.874,1.924c-.049-.175,1.732-.736,3.278-1.924C5663.486,1259.009,5664.993,1255.5,5665.292,1255.493Z" transform="translate(-4596.367 -1061.21)" fill="#ad8d51"/>
    <path id="Tracé_38" data-name="Tracé 38" d="M5191.1,1185.152l-1.156,1.3a1.913,1.913,0,0,0,1.156,1.272,11.22,11.22,0,0,0,3,.688s2.417,5.493,3.219,5.708c1.82.3,1.439-1.43,1.328-1.715-.214-.549-2.105-3.269-2.105-3.269a25.473,25.473,0,0,0,3.09,3.016c.452.1.856-1.129.856-1.129a15.075,15.075,0,0,0-1.841-1.888,17.41,17.41,0,0,0-2.482-1.676,2.51,2.51,0,0,0-.291-.546c-.184-.252-.045-.34-.463-.34a2.032,2.032,0,0,0-.917.34,12.611,12.611,0,0,1-2.562-.776C5191.083,1185.7,5191.1,1185.152,5191.1,1185.152Z" transform="translate(-4131.616 -1003.509)" fill="#c44631"/>
    <path id="Tracé_50" data-name="Tracé 50" d="M5395.1,1200.156s.363.1.479-.128a1.406,1.406,0,0,0,.03-.684,27.188,27.188,0,0,1,4.329,3.564c.074.114-.1.469-.249.758s-.419.5-.529.467A30.184,30.184,0,0,1,5395.1,1200.156Z" transform="translate(-4331.097 -1015.411)" fill="#c44631"/>
    <path id="Tracé_42" data-name="Tracé 42" d="M5215.675,1196.551c-.062-.168.214-1.469.387-1.5a5.542,5.542,0,0,1,.957.925c-.007.354.847,1.23,1.108,1.3a2.373,2.373,0,0,1,.38.569c.021.154-1.893-1.94-2.323-1.94S5215.737,1196.719,5215.675,1196.551Z" transform="translate(-4153.188 -1011.653)" fill="rgba(78,61,37,0.36)"/>
    <path id="Tracé_48" data-name="Tracé 48" d="M5218.057,1194.146l-.024.56s.952.872,1.373.856.311-.856.311-.856-.108-.774-.529-.892S5218.057,1194.146,5218.057,1194.146Z" transform="translate(-4155.172 -1010.757)" fill="#b5412d"/>
    <path id="Tracé_51" data-name="Tracé 51" d="M5218.041,1193.919l-.008.2s.338.31.488.3.11-.3.11-.3-.039-.275-.188-.317S5218.041,1193.919,5218.041,1193.919Z" transform="translate(-4154.401 -1010.596)" fill="#c37163"/>
    <path id="Tracé_52" data-name="Tracé 52" d="M.031.268C.2.357.374.284.6.445S.794.891.942,1s.22-.323.164-.572S.983.046.715.005-.142.178.031.268Z" transform="translate(1067.034 189.274) rotate(111)" fill="rgba(100,31,19,0.53)"/>
  </g>
</svg>
