<svg xmlns="http://www.w3.org/2000/svg" width="22.75" height="24.595" viewBox="0 0 22.75 24.595">
  <g id="Groupe_176" data-name="Groupe 176" transform="translate(-118 -227)">
    <path id="Tracé_56" data-name="Tracé 56" d="M27.75,29.595l-5.534-4.3.615,1.845H8.074A3.074,3.074,0,0,1,5,24.061V8.074A3.074,3.074,0,0,1,8.074,5h16.6A3.074,3.074,0,0,1,27.75,8.074Z" transform="translate(113 222)" fill="#7289da"/>
    <path id="Tracé_57" data-name="Tracé 57" d="M24.275,15.377A7.383,7.383,0,0,0,20.783,14l-.166.338a6.7,6.7,0,0,1,3.308,1.74,10.108,10.108,0,0,0-10.477,0,6.855,6.855,0,0,1,3.308-1.74L16.589,14A7.41,7.41,0,0,0,13.1,15.377s-1.789,2.576-2.1,7.612a6.62,6.62,0,0,0,4.544,2.078l.566-.756A6.969,6.969,0,0,1,13.1,22.3a8.949,8.949,0,0,0,5.589,1.537A8.949,8.949,0,0,0,24.275,22.3a6.969,6.969,0,0,1-3.013,2.011l.566.756a6.621,6.621,0,0,0,4.544-2.078C26.064,17.954,24.275,15.377,24.275,15.377Zm-7.741,6.616a1.412,1.412,0,0,1-1.23-1.537,1.412,1.412,0,0,1,1.23-1.537,1.412,1.412,0,0,1,1.23,1.537A1.412,1.412,0,0,1,16.534,21.993Zm4.3,0a1.412,1.412,0,0,1-1.23-1.537,1.412,1.412,0,0,1,1.23-1.537,1.412,1.412,0,0,1,1.23,1.537A1.412,1.412,0,0,1,20.838,21.993Z" transform="translate(110.689 218.534)" fill="#fff"/>
  </g>
</svg>
