<svg xmlns="http://www.w3.org/2000/svg" width="22.561" height="24.39" viewBox="0 0 22.561 24.39">
  <g id="icons8-nouveau-logo-discord" transform="translate(-5 -5)">
    <path id="Tracé_56" data-name="Tracé 56" d="M27.561,29.39l-5.488-4.269.61,1.83H8.049A3.049,3.049,0,0,1,5,23.9V8.049A3.049,3.049,0,0,1,8.049,5H24.512a3.048,3.048,0,0,1,3.049,3.049Z" transform="translate(0 0)" fill="#f7f8ff"/>
    <path id="Tracé_57" data-name="Tracé 57" d="M24.165,15.366A7.322,7.322,0,0,0,20.7,14l-.165.335a6.641,6.641,0,0,1,3.28,1.726,10.024,10.024,0,0,0-10.39,0,6.8,6.8,0,0,1,3.28-1.726L16.543,14a7.348,7.348,0,0,0-3.463,1.366S11.3,17.921,11,22.915a6.565,6.565,0,0,0,4.506,2.061l.561-.75a6.911,6.911,0,0,1-2.988-1.994,8.875,8.875,0,0,0,5.543,1.524,8.875,8.875,0,0,0,5.543-1.524,6.911,6.911,0,0,1-2.988,1.994l.561.75a6.565,6.565,0,0,0,4.506-2.061C25.939,17.921,24.165,15.366,24.165,15.366Zm-7.677,6.561a1.4,1.4,0,0,1-1.22-1.524,1.4,1.4,0,0,1,1.22-1.524,1.4,1.4,0,0,1,1.22,1.524A1.4,1.4,0,0,1,16.488,21.927Zm4.268,0a1.4,1.4,0,0,1-1.22-1.524,1.4,1.4,0,0,1,1.22-1.524,1.4,1.4,0,0,1,1.22,1.524A1.4,1.4,0,0,1,20.756,21.927Z" transform="translate(-2.341 -3.512)" fill="#7289da"/>
  </g>
</svg>
