<svg xmlns="http://www.w3.org/2000/svg" width="70" height="70" viewBox="0 0 70 70">
  <g id="Groupe_51" data-name="Groupe 51" transform="translate(-69 -152)">
    <g id="Groupe_45" data-name="Groupe 45">
      <rect id="Rectangle_14" data-name="Rectangle 14" width="70" height="70" rx="20" transform="translate(69 152)" fill="#b993ed"/>
    </g>
    <g id="Groupe_50" data-name="Groupe 50" transform="translate(1)">
      <g id="Groupe_48" data-name="Groupe 48" transform="translate(-4 -10)">
        <g id="Groupe_16" data-name="Groupe 16" transform="translate(83 176)">
          <g id="Groupe_12" data-name="Groupe 12" transform="translate(3.928)">
            <path id="Rectangle_23" data-name="Rectangle 23" d="M5,0h5a5,5,0,0,1,5,5V8a0,0,0,0,1,0,0H0A0,0,0,0,1,0,8V5A5,5,0,0,1,5,0Z" transform="translate(5.072)" fill="#4a3c34"/>
            <rect id="Rectangle_24" data-name="Rectangle 24" width="5" height="2" rx="1" transform="translate(10.072 2)" fill="#fbf5e8"/>
            <rect id="Rectangle_25" data-name="Rectangle 25" width="4" height="2" rx="1" transform="translate(0.072 4)" fill="#ed70aa"/>
          </g>
          <g id="Groupe_15" data-name="Groupe 15" transform="translate(0 4.713)">
            <rect id="Rectangle_22" data-name="Rectangle 22" width="33" height="20" rx="7" transform="translate(0 0.287)" fill="#4a3c34"/>
            <g id="Groupe_14" data-name="Groupe 14" transform="translate(9.399 3.114)">
              <circle id="Ellipse_3" data-name="Ellipse 3" cx="6.284" cy="6.284" r="6.284" transform="translate(0 1.749) rotate(-8)" fill="#fff"/>
              <g id="Groupe_13" data-name="Groupe 13" transform="translate(2.385 2.885)">
                <circle id="Ellipse_4" data-name="Ellipse 4" cx="4.5" cy="4.5" r="4.5" transform="translate(0.217 -0.212)" fill="#b993ed"/>
                <path id="Tracé_1" data-name="Tracé 1" d="M-782,190.623a5.36,5.36,0,0,1,.9.506,3.686,3.686,0,0,1,.66.639" transform="translate(787.513 -188.98)" fill="none" stroke="#fff" stroke-linecap="round" stroke-width="1.5"/>
                <circle id="Ellipse_5" data-name="Ellipse 5" cx="0.786" cy="0.786" r="0.786" transform="translate(7.07 3.763)" fill="#fff"/>
              </g>
            </g>
          </g>
        </g>
      </g>
      <g id="Groupe_49" data-name="Groupe 49" transform="translate(54 -110)">
        <path id="Rectangle_28" data-name="Rectangle 28" d="M10,0H23A10,10,0,0,1,33,10v9a0,0,0,0,1,0,0H0a0,0,0,0,1,0,0V10A10,10,0,0,1,10,0Z" transform="translate(41 298)" fill="#897066"/>
        <rect id="Rectangle_27" data-name="Rectangle 27" width="12" height="12" rx="3" transform="translate(45 300)" fill="#9fc5e8"/>
        <rect id="Rectangle_29" data-name="Rectangle 29" width="10" height="17" transform="translate(60 300)" fill="#654c43"/>
        <g id="Groupe_19" data-name="Groupe 19" transform="translate(39 292)">
          <path id="Rectangle_26" data-name="Rectangle 26" d="M3,0H30a3,3,0,0,1,3,3V3a0,0,0,0,1,0,0H0A0,0,0,0,1,0,3V3A3,3,0,0,1,3,0Z" transform="translate(2)" fill="#897066"/>
          <g id="Groupe_18" data-name="Groupe 18" transform="translate(0 2.076)">
            <path id="Tracé_6" data-name="Tracé 6" d="M-770.882,260.6l1.9,8.649s.59,3.4,3.259,3.176,1.878-3.176,1.878-3.176l-1.878-8.649Z" transform="translate(800.708 -260.605)" fill="#e76e6c"/>
            <path id="Tracé_12" data-name="Tracé 12" d="M-770.882,260.6l1.9,8.649s.59,3.4,3.259,3.176,1.878-3.176,1.878-3.176l-1.878-8.649Z" transform="translate(795.521 -260.605)" fill="#fff"/>
            <path id="Tracé_2" data-name="Tracé 2" d="M-790.486,251.6h4.213l1.014,8.627a2.967,2.967,0,0,1-3.138,3.219,3.036,3.036,0,0,1-3.2-3.219Z" transform="translate(806.861 -251.605)" fill="#fff"/>
            <path id="Tracé_13" data-name="Tracé 13" d="M-770.882,260.6l1.9,8.649s.59,3.4,3.259,3.176,1.878-3.176,1.878-3.176l-1.878-8.649Z" transform="translate(790.55 -260.605)" fill="#e76e6c"/>
            <path id="Tracé_14" data-name="Tracé 14" d="M-763.731,260.6l-1.9,8.649s-.59,3.4-3.26,3.176-1.878-3.176-1.878-3.176l1.878-8.649Z" transform="translate(770.882 -260.605)" fill="#e76e6c"/>
            <path id="Tracé_15" data-name="Tracé 15" d="M-763.731,260.6l-1.9,8.649s-.59,3.4-3.26,3.176-1.878-3.176-1.878-3.176l1.878-8.649Z" transform="translate(776.069 -260.605)" fill="#fff"/>
            <path id="Tracé_16" data-name="Tracé 16" d="M-763.731,260.6l-1.9,8.649s-.59,3.4-3.26,3.176-1.878-3.176-1.878-3.176l1.878-8.649Z" transform="translate(781.04 -260.605)" fill="#e76e6c"/>
          </g>
        </g>
        <rect id="Rectangle_30" data-name="Rectangle 30" width="2" height="1" rx="0.5" transform="translate(67 309)" fill="#cca54c"/>
      </g>
    </g>
  </g>
</svg>
