<svg xmlns="http://www.w3.org/2000/svg" width="70" height="70" viewBox="0 0 70 70">
  <g id="Groupe_46" data-name="Groupe 46" transform="translate(-153 -152)">
    <rect id="Rectangle_20" data-name="Rectangle 20" width="70" height="70" rx="20" transform="translate(153 152)" fill="#b4cb54"/>
    <g id="Groupe_35" data-name="Groupe 35">
      <g id="Groupe_33" data-name="Groupe 33" transform="translate(162.019 161.022)">
        <g id="Groupe_32" data-name="Groupe 32" transform="translate(0 0)">
          <g id="Groupe_30" data-name="Groupe 30" transform="translate(17.235 0)">
            <g id="Groupe_28" data-name="Groupe 28" transform="translate(6.278 5.057)">
              <path id="Tracé_22" data-name="Tracé 22" d="M0,6.763H1.072a24.884,24.884,0,0,0,.3-3.486A20.3,20.3,0,0,0,1.072,0H0A20.816,20.816,0,0,1,.3,3.3,24.311,24.311,0,0,1,0,6.763Z" transform="matrix(-0.788, -0.616, 0.616, -0.788, 3.018, 20.207)" fill="#439046"/>
              <g id="Groupe_24" data-name="Groupe 24" transform="matrix(0.819, 0.574, -0.574, 0.819, 9.883, 0)">
                <path id="Tracé_18" data-name="Tracé 18" d="M5.808,0c3.277,0,9.075,4.964,9.075,4.964S9.086,9.95,5.808,9.95,0,7.379,0,4.964,2.531,0,5.808,0Z" transform="matrix(0.309, -0.951, 0.951, 0.309, 0, 14.155)" fill="#439046"/>
              </g>
            </g>
            <g id="Groupe_26" data-name="Groupe 26" transform="translate(0 0.04)">
              <path id="Tracé_20" data-name="Tracé 20" d="M0,0H.945a28.157,28.157,0,0,1,.26,3.486,22.961,22.961,0,0,1-.26,3.277H0a23.542,23.542,0,0,0,.26-3.3A27.507,27.507,0,0,0,0,0Z" transform="matrix(0.891, 0.454, -0.454, 0.891, 4.889, 14.54)" fill="#439046"/>
              <g id="Groupe_25" data-name="Groupe 25" transform="matrix(0.998, -0.07, 0.07, 0.998, 0, 0.981)">
                <path id="Tracé_18-2" data-name="Tracé 18" d="M5.808,0c3.277,0,9.075,4.964,9.075,4.964S9.086,9.95,5.808,9.95,0,7.379,0,4.964,2.531,0,5.808,0Z" transform="matrix(0.309, -0.951, 0.951, 0.309, 0, 14.155)" fill="#439046"/>
              </g>
            </g>
            <g id="Groupe_29" data-name="Groupe 29" transform="translate(3.129 0)">
              <rect id="Rectangle_31" data-name="Rectangle 31" width="1.04" height="6.763" transform="matrix(0.799, 0.602, -0.602, 0.799, 5.709, 16.523)" fill="#56ad63"/>
              <g id="Groupe_23" data-name="Groupe 23" transform="matrix(0.819, 0.574, -0.574, 0.819, 10.664, 0)">
                <path id="Tracé_18-3" data-name="Tracé 18" d="M7.256,0C11.35,0,18.593,6.2,18.593,6.2S11.35,12.43,7.256,12.43,0,9.218,0,6.2,3.162,0,7.256,0Z" transform="translate(0 18.593) rotate(-90)" fill="#56ad63"/>
                <path id="Tracé_19" data-name="Tracé 19" d="M5.263,0H9.2c1.628-.018,1.423.55,1.436.548s.126.318-1.111,1.294c-1.514,1.189-2.5,2.07-4.647,2.07A6.268,6.268,0,0,1,.437,1.638C-.22.8.053.435.073.4S.129,0,1.32,0Z" transform="translate(6.137 15.757) rotate(-90)" fill="#4ea159"/>
              </g>
            </g>
          </g>
          <g id="Groupe_27" data-name="Groupe 27" transform="translate(3.658 12.947) rotate(7)">
            <path id="Tracé_17" data-name="Tracé 17" d="M6.538,0c2.744,0,5.5,7.136,5.5,7.136L0,7.058S3.795,0,6.538,0Z" transform="translate(15.34 30.015) rotate(-160)" fill="#f2f7e2"/>
            <ellipse id="Ellipse_6" data-name="Ellipse 6" cx="13.265" cy="11.314" rx="13.265" ry="11.314" transform="matrix(0.951, 0.309, -0.309, 0.951, 6.993, 0)" fill="#f2f7e2"/>
          </g>
        </g>
        <circle id="Ellipse_10" data-name="Ellipse 10" cx="1" cy="1" r="1" transform="translate(18.981 32.978)" fill="#c8bca1"/>
        <circle id="Ellipse_11" data-name="Ellipse 11" cx="1" cy="1" r="1" transform="translate(21.981 34.978)" fill="#c8bca1"/>
        <circle id="Ellipse_12" data-name="Ellipse 12" cx="1" cy="1" r="1" transform="translate(23.981 31.978)" fill="#c8bca1"/>
      </g>
      <g id="Groupe_34" data-name="Groupe 34" transform="translate(182.523 184.063)">
        <path id="Tracé_23" data-name="Tracé 23" d="M-731.744,196.195l5.333-9.381,4.223,4.528,5.045-9.427,4.638,4.9,6.141-10.651" transform="translate(731.744 -171.258)" fill="none" stroke="#64603c" stroke-linecap="round" stroke-linejoin="round" stroke-width="4"/>
        <path id="Polygone_1" data-name="Polygone 1" d="M5.524,2.32a1.75,1.75,0,0,1,2.953,0l3.812,5.99A1.75,1.75,0,0,1,10.812,11H3.188A1.75,1.75,0,0,1,1.712,8.31Z" transform="translate(24.227 -7.453) rotate(30)" fill="#64603c"/>
      </g>
    </g>
  </g>
</svg>
